<svg class="main-svg" xmlns="http://www.w3.org/2000/svg" xmlns:xlink="http://www.w3.org/1999/xlink" width="4735" height="2250" style="" viewBox="0 0 947 450"><rect x="0" y="0" width="947" height="450" style="fill: rgb(255, 255, 255); fill-opacity: 1;"/><defs id="defs-9ac603"><g class="clips"><clipPath id="clip9ac603xyplot" class="plotclip"><rect width="699" height="270"/></clipPath><clipPath class="axesclip" id="clip9ac603x"><rect x="80" y="0" width="699" height="450"/></clipPath><clipPath class="axesclip" id="clip9ac603y"><rect x="0" y="100" width="947" height="270"/></clipPath><clipPath class="axesclip" id="clip9ac603xy"><rect x="80" y="100" width="699" height="270"/></clipPath></g><g class="gradients"/><g class="patterns"/></defs><g class="bglayer"/><g class="layer-below"><g class="imagelayer"/><g class="shapelayer"/></g><g class="cartesianlayer"><g class="subplot xy"><g class="layer-subplot"><g class="shapelayer"/><g class="imagelayer"/></g><g class="minor-gridlayer"><g class="x"/><g class="y"/></g><g class="gridlayer"><g class="x"/><g class="y"/></g><g class="zerolinelayer"/><path class="xlines-below"/><path class="ylines-below"/><g class="overlines-below"/><g class="xaxislayer-below"/><g class="yaxislayer-below"/><g class="overaxes-below"/><g class="plot" transform="translate(80,100)" clip-path="url(#clip9ac603xyplot)"><g class="violinlayer mlayer"><g class="trace violins" style="opacity: 1;"><path class="violin" d="M49.93,82.27L49.61,82.27Q49.43,84.43 49.28,85.5C49.13,86.58 48.96,87.66 48.73,88.73C48.5,89.81 48.22,90.88 47.89,91.95C47.56,93.03 47.16,94.11 46.74,95.18C46.31,96.26 45.84,97.33 45.35,98.4C44.86,99.48 44.32,100.55 43.8,101.63C43.28,102.71 42.74,103.78 42.22,104.86C41.71,105.93 41.21,107 40.71,108.08C40.21,109.15 39.73,110.23 39.24,111.31C38.74,112.39 38.27,113.47 37.74,114.54C37.2,115.62 36.65,116.7 36.03,117.76C35.39,118.85 34.7,119.93 33.93,120.99C33.12,122.09 32.23,123.17 31.27,124.22C30.26,125.32 29.15,126.39 28,127.44C26.8,128.54 25.5,129.61 24.19,130.67C22.85,131.76 21.44,132.83 20.06,133.9C18.67,134.98 17.24,136.03 15.88,137.12C14.54,138.18 13.21,139.25 11.96,140.35C10.76,141.41 9.58,142.47 8.52,143.57C7.51,144.62 6.54,145.69 5.71,146.8C4.93,147.85 4.21,148.92 3.66,150.03C3.14,151.08 2.7,152.16 2.46,153.25C2.23,154.31 2.13,155.41 2.22,156.48C2.31,157.56 2.59,158.66 3.01,159.71C3.45,160.82 4.12,161.89 4.85,162.93C5.64,164.04 6.61,165.11 7.62,166.16C8.7,167.27 9.92,168.33 11.16,169.39C12.44,170.49 13.82,171.54 15.19,172.61C16.58,173.69 18.04,174.76 19.44,175.84C20.83,176.91 22.25,177.98 23.58,179.07C24.87,180.13 26.16,181.19 27.32,182.29C28.43,183.34 29.48,184.41 30.41,185.52C31.29,186.57 32.08,187.64 32.77,188.74C33.43,189.79 33.97,190.88 34.47,191.97C34.96,193.03 35.34,194.12 35.74,195.2C36.13,196.27 36.46,197.35 36.83,198.42C37.2,199.5 37.55,200.58 37.94,201.65C38.33,202.73 38.74,203.81 39.15,204.88C39.57,205.96 40,207.03 40.43,208.1C40.86,209.18 41.31,210.25 41.73,211.33C42.15,212.4 42.57,213.48 42.97,214.56C43.36,215.63 43.75,216.7 44.1,217.78C44.44,218.85 44.76,219.93 45.04,221.01C45.32,222.08 45.56,223.16 45.77,224.24C45.98,225.31 46.13,226.38 46.28,227.46C46.43,228.53 46.53,229.61 46.65,230.69C46.77,231.76 46.86,232.84 46.98,233.91C47.1,234.99 47.22,236.06 47.36,237.14C47.5,238.22 47.65,239.29 47.81,240.37C47.97,241.44 48.15,242.52 48.31,243.59C48.48,244.67 48.65,245.74 48.8,246.82C48.95,247.9 49.09,248.97 49.21,250.05C49.33,251.12 49.44,252.2 49.52,253.27Q49.6,254.35 49.71,256.5L49.93,256.5" style="vector-effect: none; stroke-width: 2px; stroke: rgb(31, 119, 180); stroke-opacity: 1; fill: rgb(31, 119, 180); fill-opacity: 0.5;"/><path class="violin" d="M249.64,54.67L249.27,54.67Q249.07,56.82 248.93,57.9C248.79,58.98 248.61,60.06 248.41,61.14C248.21,62.22 247.97,63.3 247.72,64.37C247.47,65.45 247.19,66.52 246.93,67.6C246.66,68.68 246.38,69.76 246.13,70.84C245.88,71.92 245.65,72.99 245.45,74.07C245.25,75.15 245.08,76.23 244.93,77.31C244.78,78.39 244.67,79.46 244.53,80.54C244.39,81.62 244.27,82.7 244.07,83.77C243.87,84.85 243.66,85.94 243.32,87.01C242.98,88.1 242.55,89.19 242.02,90.24C241.46,91.34 240.79,92.42 240.03,93.47C239.23,94.58 238.28,95.65 237.3,96.71C236.27,97.81 235.13,98.88 233.98,99.94C232.8,101.03 231.55,102.09 230.33,103.17C229.11,104.25 227.87,105.32 226.68,106.41C225.52,107.48 224.37,108.55 223.28,109.64C222.22,110.71 221.2,111.79 220.21,112.88C219.23,113.95 218.32,115.03 217.37,116.11C216.42,117.19 215.5,118.27 214.53,119.34C213.54,120.43 212.53,121.51 211.49,122.58C210.44,123.67 209.33,124.73 208.26,125.81C207.2,126.88 206.07,127.94 205.09,129.04C204.14,130.1 203.17,131.16 202.45,132.28C201.78,133.32 201.13,134.4 200.85,135.51C200.58,136.56 200.5,137.69 200.71,138.74C200.93,139.85 201.53,140.95 202.21,141.98C202.97,143.12 204.06,144.17 205.15,145.21C206.33,146.33 207.72,147.39 209.08,148.45C210.48,149.55 211.98,150.6 213.43,151.68C214.87,152.76 216.34,153.82 217.74,154.91C219.12,155.98 220.47,157.06 221.77,158.15C223.04,159.21 224.28,160.29 225.47,161.38C226.63,162.44 227.76,163.52 228.84,164.61C229.89,165.67 230.9,166.75 231.84,167.85C232.74,168.91 233.62,169.98 234.38,171.08C235.11,172.14 235.78,173.22 236.35,174.32C236.9,175.38 237.36,176.46 237.75,177.55C238.13,178.61 238.41,179.7 238.69,180.78C238.96,181.85 239.16,182.94 239.4,184.02C239.63,185.1 239.84,186.18 240.1,187.25C240.36,188.33 240.63,189.41 240.94,190.48C241.25,191.56 241.6,192.64 241.95,193.72C242.3,194.8 242.69,195.87 243.05,196.95C243.41,198.03 243.78,199.1 244.11,200.18C244.44,201.26 244.76,202.34 245.05,203.42C245.33,204.49 245.59,205.57 245.82,206.65C246.05,207.73 246.25,208.81 246.44,209.89C246.63,210.97 246.79,212.04 246.96,213.12C247.13,214.2 247.28,215.27 247.44,216.35C247.6,217.43 247.75,218.51 247.9,219.59C248.05,220.67 248.2,221.74 248.34,222.82C248.48,223.9 248.62,224.97 248.74,226.05C248.86,227.13 248.97,228.21 249.07,229.29C249.16,230.37 249.24,231.44 249.31,232.52Q249.38,233.6 249.47,235.75L249.64,235.75" style="vector-effect: none; stroke-width: 2px; stroke: rgb(31, 119, 180); stroke-opacity: 1; fill: rgb(31, 119, 180); fill-opacity: 0.5;"/><path class="violin" d="M449.36,22.67L449.21,22.67Q449.13,25.04 449.08,26.23C449.03,27.41 448.97,28.6 448.91,29.78C448.85,30.96 448.77,32.15 448.7,33.33C448.63,34.52 448.55,35.7 448.49,36.89C448.43,38.07 448.36,39.26 448.32,40.44C448.28,41.63 448.25,42.81 448.25,44C448.25,45.18 448.27,46.37 448.3,47.55C448.33,48.73 448.38,49.92 448.44,51.1C448.5,52.29 448.57,53.47 448.64,54.66C448.71,55.84 448.78,57.03 448.84,58.21C448.9,59.39 448.95,60.58 448.98,61.76C449.01,62.95 449.03,64.13 449.02,65.32C449.01,66.5 448.98,67.69 448.92,68.87C448.86,70.05 448.77,71.24 448.64,72.42C448.51,73.61 448.35,74.8 448.14,75.98C447.93,77.17 447.68,78.35 447.39,79.53C447.1,80.72 446.76,81.91 446.4,83.09C446.04,84.28 445.64,85.46 445.23,86.64C444.82,87.83 444.38,89.01 443.95,90.19C443.52,91.38 443.07,92.57 442.63,93.75C442.18,94.94 441.75,96.12 441.28,97.3C440.81,98.49 440.34,99.68 439.8,100.85C439.25,102.05 438.68,103.25 438,104.41C437.29,105.62 436.51,106.81 435.6,107.96C434.64,109.18 433.56,110.37 432.37,111.52C431.1,112.75 429.68,113.92 428.19,115.07C426.61,116.29 424.88,117.45 423.14,118.62C421.34,119.83 419.42,120.99 417.58,122.18C415.75,123.36 413.85,124.51 412.12,125.73C410.48,126.88 408.82,128.03 407.47,129.28C406.25,130.41 405.05,131.58 404.29,132.84C403.61,133.96 403.09,135.19 402.95,136.39C402.82,137.56 403.06,138.8 403.43,139.95C403.82,141.17 404.57,142.34 405.29,143.5C406.04,144.71 407,145.87 407.86,147.05C408.72,148.24 409.66,149.41 410.46,150.61C411.23,151.78 411.98,152.96 412.59,154.16C413.18,155.32 413.66,156.51 414.1,157.71C414.53,158.89 414.84,160.08 415.21,161.27C415.58,162.45 415.89,163.65 416.33,164.82C416.78,166.02 417.28,167.22 417.9,168.38C418.55,169.59 419.33,170.77 420.18,171.93C421.07,173.14 422.11,174.31 423.16,175.48C424.25,176.69 425.44,177.86 426.6,179.04C427.77,180.23 428.99,181.4 430.14,182.59C431.28,183.77 432.42,184.94 433.48,186.14C434.52,187.31 435.52,188.5 436.45,189.7C437.36,190.87 438.21,192.05 439.02,193.25C439.81,194.42 440.55,195.61 441.25,196.81C441.94,197.98 442.58,199.17 443.19,200.36C443.79,201.53 444.35,202.72 444.87,203.91C445.38,205.09 445.85,206.28 446.27,207.47C446.68,208.65 447.05,209.83 447.37,211.02C447.68,212.2 447.95,213.38 448.17,214.57C448.39,215.75 448.57,216.94 448.71,218.13Q448.85,219.31 449.03,221.68L449.36,221.68" style="vector-effect: none; stroke-width: 2px; stroke: rgb(31, 119, 180); stroke-opacity: 1; fill: rgb(31, 119, 180); fill-opacity: 0.5;"/><path class="violin" d="M649.07,13.5L648.93,13.5Q648.86,16.03 648.81,17.3C648.76,18.56 648.7,19.83 648.64,21.09C648.58,22.36 648.51,23.62 648.44,24.89C648.37,26.15 648.3,27.42 648.24,28.68C648.18,29.95 648.13,31.21 648.09,32.48C648.05,33.74 648.02,35.01 648.02,36.27C648.02,37.54 648.04,38.8 648.07,40.07C648.1,41.33 648.16,42.6 648.21,43.86C648.26,45.13 648.34,46.39 648.39,47.66C648.44,48.93 648.5,50.19 648.53,51.46C648.56,52.72 648.59,53.99 648.59,55.25C648.59,56.52 648.57,57.78 648.52,59.05C648.47,60.31 648.39,61.58 648.28,62.84C648.17,64.11 648.03,65.38 647.87,66.64C647.71,67.91 647.51,69.17 647.31,70.43C647.11,71.7 646.88,72.97 646.65,74.23C646.41,75.5 646.16,76.76 645.9,78.02C645.64,79.29 645.37,80.56 645.07,81.82C644.77,83.09 644.47,84.36 644.12,85.62C643.77,86.89 643.39,88.15 642.95,89.41C642.5,90.68 642.01,91.96 641.45,93.21C640.88,94.49 640.25,95.75 639.53,97C638.79,98.29 637.96,99.56 637.06,100.8C636.12,102.09 635.09,103.35 634,104.59C632.86,105.88 631.62,107.14 630.35,108.39C629.05,109.67 627.66,110.93 626.3,112.19C624.94,113.46 623.5,114.7 622.18,115.98C620.89,117.23 619.59,118.48 618.47,119.78C617.41,121.01 616.39,122.26 615.6,123.57C614.85,124.8 614.24,126.08 613.8,127.37C613.38,128.61 613.16,129.89 613,131.16C612.85,132.42 612.87,133.69 612.86,134.96C612.85,136.22 612.93,137.49 612.92,138.75C612.91,140.02 612.9,141.28 612.82,142.55C612.74,143.82 612.58,145.09 612.43,146.35C612.28,147.62 612.05,148.87 611.93,150.14C611.81,151.4 611.67,152.68 611.71,153.94C611.75,155.21 611.86,156.48 612.15,157.73C612.45,159.01 612.92,160.29 613.5,161.53C614.11,162.82 614.9,164.08 615.75,165.32C616.64,166.62 617.69,167.87 618.74,169.12C619.83,170.4 621.01,171.65 622.18,172.91C623.37,174.18 624.61,175.44 625.81,176.71C627,177.97 628.21,179.23 629.35,180.51C630.46,181.76 631.55,183.01 632.55,184.3C633.52,185.55 634.43,186.81 635.25,188.1C636.05,189.34 636.76,190.61 637.42,191.89C638.06,193.14 638.61,194.42 639.15,195.69C639.68,196.95 640.15,198.21 640.63,199.48C641.11,200.74 641.56,202.01 642.03,203.28C642.5,204.54 642.97,205.8 643.43,207.07C643.89,208.33 644.36,209.6 644.8,210.87C645.24,212.13 645.67,213.4 646.06,214.67C646.44,215.93 646.8,217.19 647.11,218.46C647.41,219.72 647.67,220.99 647.89,222.26C648.11,223.52 648.29,224.78 648.43,226.05Q648.57,227.31 648.75,229.85L649.07,229.85" style="vector-effect: none; stroke-width: 2px; stroke: rgb(31, 119, 180); stroke-opacity: 1; fill: rgb(31, 119, 180); fill-opacity: 0.5;"/><path class="meanline" d="M2.636706829071045,158.64H49.93" style="fill: none; vector-effect: none; stroke-width: 2px; stroke-dasharray: 4px, 2px; stroke: rgb(31, 119, 180); stroke-opacity: 1;"/><path class="meanline" d="M200.61268615722656,138.04H249.64" style="fill: none; vector-effect: none; stroke-width: 2px; stroke-dasharray: 4px, 2px; stroke: rgb(31, 119, 180); stroke-opacity: 1;"/><path class="meanline" d="M406.43255615234375,145.15H449.36" style="fill: none; vector-effect: none; stroke-width: 2px; stroke-dasharray: 4px, 2px; stroke: rgb(31, 119, 180); stroke-opacity: 1;"/><path class="meanline" d="M612.6472778320312,144.49H649.07" style="fill: none; vector-effect: none; stroke-width: 2px; stroke-dasharray: 4px, 2px; stroke: rgb(31, 119, 180); stroke-opacity: 1;"/></g><g class="trace violins" style="opacity: 1;"><path class="violin" d="M49.93,193.69L50.03,193.69Q50.09,192.52 50.13,191.93C50.17,191.35 50.22,190.76 50.29,190.18C50.36,189.59 50.44,189.01 50.54,188.42C50.64,187.83 50.75,187.24 50.89,186.66C51.03,186.07 51.18,185.49 51.36,184.91C51.54,184.32 51.75,183.73 51.99,183.15C52.23,182.56 52.49,181.97 52.8,181.39C53.11,180.8 53.47,180.21 53.86,179.64C54.27,179.04 54.71,178.45 55.2,177.88C55.71,177.28 56.27,176.69 56.86,176.12C57.47,175.52 58.13,174.95 58.8,174.37C59.49,173.78 60.21,173.19 60.92,172.61C61.63,172.02 62.37,171.45 63.06,170.86C63.74,170.28 64.42,169.7 65.05,169.1C65.65,168.52 66.22,167.94 66.75,167.34C67.25,166.77 67.71,166.18 68.15,165.59C68.58,165.01 68.95,164.42 69.34,163.83C69.73,163.25 70.09,162.65 70.48,162.07C70.87,161.48 71.28,160.9 71.69,160.32C72.1,159.73 72.54,159.15 72.95,158.56C73.36,157.98 73.79,157.4 74.14,156.8C74.48,156.23 74.83,155.65 75.05,155.05C75.27,154.48 75.44,153.88 75.48,153.29C75.52,152.71 75.46,152.1 75.31,151.53C75.16,150.93 74.87,150.35 74.55,149.78C74.21,149.18 73.75,148.59 73.29,148.02C72.8,147.42 72.24,146.84 71.68,146.26C71.1,145.67 70.47,145.09 69.85,144.51C69.22,143.92 68.56,143.34 67.92,142.75C67.29,142.16 66.65,141.58 66.03,140.99C65.42,140.41 64.82,139.83 64.25,139.24C63.69,138.66 63.14,138.07 62.62,137.48C62.11,136.9 61.61,136.31 61.13,135.72C60.65,135.14 60.19,134.56 59.74,133.97C59.29,133.39 58.85,132.8 58.42,132.21C57.99,131.62 57.56,131.04 57.14,130.45C56.73,129.87 56.32,129.29 55.92,128.7C55.52,128.12 55.13,127.53 54.75,126.94C54.38,126.36 54.01,125.77 53.66,125.18C53.32,124.6 52.99,124.02 52.68,123.43C52.38,122.85 52.1,122.26 51.84,121.67C51.59,121.09 51.36,120.5 51.16,119.91C50.97,119.33 50.81,118.75 50.67,118.16C50.53,117.58 50.42,116.99 50.33,116.4Q50.24,115.82 50.13,114.64L49.93,114.64" style="vector-effect: none; stroke-width: 2px; stroke: rgb(255, 127, 14); stroke-opacity: 1; fill: rgb(255, 127, 14); fill-opacity: 0.5;"/><path class="violin" d="M249.64,169.82L249.9,169.82Q250.05,168.85 250.17,168.37C250.29,167.89 250.44,167.4 250.63,166.93C250.83,166.44 251.07,165.95 251.35,165.48C251.64,164.99 251.99,164.5 252.37,164.03C252.76,163.54 253.2,163.06 253.66,162.59C254.14,162.1 254.66,161.62 255.18,161.14C255.71,160.65 256.26,160.18 256.81,159.7C257.36,159.22 257.92,158.74 258.47,158.25C259.01,157.77 259.55,157.29 260.07,156.8C260.59,156.32 261.09,155.84 261.59,155.36C262.08,154.88 262.56,154.39 263.05,153.91C263.54,153.43 264.03,152.95 264.53,152.47C265.03,151.99 265.53,151.5 266.05,151.02C266.58,150.53 267.12,150.05 267.66,149.57C268.21,149.09 268.77,148.61 269.32,148.13C269.87,147.65 270.43,147.17 270.97,146.68C271.5,146.2 272.03,145.73 272.54,145.24C273.03,144.76 273.51,144.28 273.97,143.79C274.41,143.31 274.85,142.84 275.25,142.35C275.64,141.87 276.02,141.39 276.37,140.9C276.71,140.42 277.05,139.94 277.33,139.45C277.6,138.98 277.86,138.5 278.04,138.01C278.21,137.54 278.34,137.05 278.38,136.56C278.42,136.08 278.38,135.59 278.27,135.12C278.15,134.63 277.93,134.14 277.68,133.67C277.41,133.17 277.06,132.69 276.7,132.22C276.33,131.73 275.91,131.26 275.49,130.78C275.06,130.29 274.62,129.81 274.17,129.33C273.71,128.85 273.26,128.36 272.77,127.89C272.27,127.4 271.76,126.91 271.2,126.44C270.61,125.94 269.98,125.46 269.31,124.99C268.59,124.49 267.81,124.02 267.01,123.55C266.16,123.05 265.26,122.57 264.35,122.1C263.42,121.61 262.43,121.14 261.48,120.66C260.53,120.18 259.56,119.7 258.65,119.21C257.77,118.74 256.89,118.26 256.09,117.76C255.34,117.29 254.61,116.82 253.96,116.32C253.36,115.86 252.8,115.37 252.33,114.87C251.9,114.41 251.52,113.93 251.2,113.43C250.9,112.96 250.66,112.47 250.47,111.98Q250.28,111.51 250.05,110.54L249.64,110.54" style="vector-effect: none; stroke-width: 2px; stroke: rgb(255, 127, 14); stroke-opacity: 1; fill: rgb(255, 127, 14); fill-opacity: 0.5;"/><path class="violin" d="M449.36,164.76L449.63,164.76Q449.79,164.15 449.92,163.85C450.05,163.54 450.21,163.23 450.42,162.93C450.64,162.61 450.91,162.3 451.22,162.01C451.56,161.69 451.95,161.38 452.38,161.09C452.86,160.77 453.4,160.47 453.96,160.18C454.58,159.86 455.25,159.56 455.94,159.26C456.68,158.94 457.46,158.64 458.25,158.34C459.06,158.03 459.91,157.73 460.73,157.42C461.53,157.12 462.36,156.83 463.11,156.51C463.8,156.22 464.5,155.92 465.08,155.59C465.57,155.3 466.07,155.01 466.38,154.67C466.64,154.39 466.84,154.07 466.91,153.75C466.98,153.46 466.9,153.14 466.85,152.84C466.8,152.53 466.62,152.23 466.6,151.92C466.58,151.62 466.56,151.28 466.7,151C466.86,150.66 467.23,150.35 467.64,150.08C468.18,149.72 468.95,149.45 469.74,149.17C470.72,148.83 471.9,148.54 473.1,148.25C474.47,147.92 476.01,147.63 477.55,147.33C479.19,147.01 480.96,146.72 482.67,146.41C484.39,146.1 486.18,145.8 487.85,145.49C489.42,145.19 491.01,144.91 492.41,144.58C493.63,144.29 494.84,144.01 495.8,143.66C496.55,143.38 497.32,143.12 497.74,142.74C498.04,142.47 498.29,142.13 498.29,141.82C498.29,141.52 497.99,141.19 497.73,140.91C497.41,140.57 496.91,140.28 496.43,139.99C495.9,139.66 495.29,139.37 494.68,139.07C494.04,138.75 493.36,138.45 492.68,138.15C491.98,137.84 491.25,137.54 490.52,137.24C489.78,136.93 489.03,136.62 488.26,136.32C487.46,136.01 486.66,135.7 485.82,135.4C484.93,135.08 484.02,134.77 483.05,134.48C481.99,134.16 480.87,133.86 479.69,133.57C478.4,133.25 477.01,132.95 475.6,132.65C474.09,132.33 472.48,132.03 470.88,131.73C469.24,131.42 467.53,131.12 465.88,130.81C464.27,130.51 462.64,130.22 461.12,129.9C459.72,129.61 458.33,129.31 457.08,128.98C455.98,128.69 454.93,128.4 454.01,128.06C453.24,127.78 452.52,127.48 451.92,127.14C451.43,126.86 450.99,126.56 450.65,126.23Q450.36,125.94 449.95,125.31L449.36,125.31" style="vector-effect: none; stroke-width: 2px; stroke: rgb(255, 127, 14); stroke-opacity: 1; fill: rgb(255, 127, 14); fill-opacity: 0.5;"/><path class="violin" d="M649.07,170.82L649.34,170.82Q649.49,169.96 649.59,169.53C649.69,169.1 649.82,168.67 649.96,168.24C650.11,167.81 650.28,167.38 650.46,166.95C650.65,166.52 650.87,166.09 651.08,165.66C651.3,165.23 651.52,164.8 651.75,164.37C651.98,163.94 652.21,163.51 652.44,163.08C652.67,162.65 652.9,162.22 653.14,161.79C653.38,161.36 653.62,160.92 653.9,160.5C654.18,160.06 654.48,159.63 654.82,159.21C655.18,158.77 655.59,158.34 656.03,157.92C656.5,157.47 657.03,157.05 657.59,156.63C658.19,156.18 658.84,155.76 659.51,155.34C660.21,154.9 660.96,154.47 661.72,154.05C662.51,153.61 663.32,153.18 664.15,152.76C665,152.32 665.87,151.9 666.75,151.47C667.65,151.03 668.57,150.61 669.5,150.18C670.44,149.75 671.41,149.32 672.37,148.89C673.34,148.46 674.32,148.03 675.28,147.6C676.21,147.17 677.16,146.75 678.04,146.31C678.86,145.89 679.68,145.48 680.39,145.02C681.03,144.61 681.65,144.2 682.12,143.73C682.52,143.33 682.89,142.89 683.08,142.44C683.26,142.03 683.33,141.58 683.3,141.15C683.27,140.72 683.1,140.28 682.91,139.86C682.7,139.41 682.39,138.99 682.07,138.57C681.73,138.13 681.33,137.7 680.93,137.28C680.52,136.84 680.07,136.42 679.64,135.99C679.2,135.56 678.76,135.13 678.32,134.7C677.88,134.27 677.46,133.84 677.02,133.41C676.58,132.98 676.16,132.54 675.7,132.12C675.22,131.68 674.74,131.24 674.2,130.83C673.61,130.38 672.97,129.95 672.28,129.54C671.52,129.09 670.68,128.66 669.8,128.25C668.85,127.8 667.81,127.38 666.78,126.96C665.7,126.52 664.56,126.1 663.45,125.67C662.34,125.24 661.21,124.82 660.14,124.38C659.12,123.96 658.11,123.54 657.18,123.09C656.32,122.68 655.49,122.26 654.76,121.8C654.1,121.39 653.49,120.96 652.96,120.51C652.48,120.1 652.06,119.67 651.71,119.22C651.39,118.81 651.14,118.37 650.93,117.93C650.73,117.51 650.6,117.07 650.49,116.64C650.38,116.21 650.33,115.78 650.28,115.35C650.23,114.92 650.2,114.49 650.17,114.06C650.14,113.63 650.11,113.2 650.08,112.77C650.05,112.34 650.02,111.91 649.97,111.48C649.92,111.05 649.86,110.62 649.8,110.19C649.74,109.76 649.68,109.33 649.62,108.9C649.56,108.47 649.5,108.04 649.44,107.61C649.39,107.18 649.33,106.75 649.29,106.32Q649.25,105.89 649.19,105.03L649.07,105.03" style="vector-effect: none; stroke-width: 2px; stroke: rgb(255, 127, 14); stroke-opacity: 1; fill: rgb(255, 127, 14); fill-opacity: 0.5;"/><path class="meanline" d="M75.46996307373047,153.41H49.93" style="fill: none; vector-effect: none; stroke-width: 2px; stroke-dasharray: 4px, 2px; stroke: rgb(255, 127, 14); stroke-opacity: 1;"/><path class="meanline" d="M277.949951171875,138.24H249.64" style="fill: none; vector-effect: none; stroke-width: 2px; stroke-dasharray: 4px, 2px; stroke: rgb(255, 127, 14); stroke-opacity: 1;"/><path class="meanline" d="M498.00018310546875,142.47H449.36" style="fill: none; vector-effect: none; stroke-width: 2px; stroke-dasharray: 4px, 2px; stroke: rgb(255, 127, 14); stroke-opacity: 1;"/><path class="meanline" d="M682.9896850585938,140.04H649.07" style="fill: none; vector-effect: none; stroke-width: 2px; stroke-dasharray: 4px, 2px; stroke: rgb(255, 127, 14); stroke-opacity: 1;"/></g></g></g><g class="overplot"/><path class="xlines-above crisp" d="M79,370.5H779" style="fill: none; stroke-width: 1px; stroke: rgb(36, 36, 36); stroke-opacity: 1;"/><path class="ylines-above crisp" d="M79.5,100V370" style="fill: none; stroke-width: 1px; stroke: rgb(36, 36, 36); stroke-opacity: 1;"/><g class="overlines-above"/><g class="xaxislayer-above"><path class="xtick ticks crisp" d="M0,371v5" transform="translate(129.93,0)" style="stroke: rgb(68, 68, 68); stroke-opacity: 1; stroke-width: 1px;"/><path class="xtick ticks crisp" d="M0,371v5" transform="translate(329.64,0)" style="stroke: rgb(68, 68, 68); stroke-opacity: 1; stroke-width: 1px;"/><path class="xtick ticks crisp" d="M0,371v5" transform="translate(529.36,0)" style="stroke: rgb(68, 68, 68); stroke-opacity: 1; stroke-width: 1px;"/><path class="xtick ticks crisp" d="M0,371v5" transform="translate(729.07,0)" style="stroke: rgb(68, 68, 68); stroke-opacity: 1; stroke-width: 1px;"/><g class="xtick"><text text-anchor="middle" x="0" y="390.4" transform="translate(129.93,0)" style="font-family: 'Open Sans', verdana, arial, sans-serif; font-size: 12px; fill: rgb(36, 36, 36); fill-opacity: 1; white-space: pre; opacity: 1;">decision_tree</text></g><g class="xtick"><text text-anchor="middle" x="0" y="390.4" transform="translate(329.64,0)" style="font-family: 'Open Sans', verdana, arial, sans-serif; font-size: 12px; fill: rgb(36, 36, 36); fill-opacity: 1; white-space: pre; opacity: 1;">extra_trees</text></g><g class="xtick"><text text-anchor="middle" x="0" y="390.4" transform="translate(529.36,0)" style="font-family: 'Open Sans', verdana, arial, sans-serif; font-size: 12px; fill: rgb(36, 36, 36); fill-opacity: 1; white-space: pre; opacity: 1;">gradient_boosting</text></g><g class="xtick"><text text-anchor="middle" x="0" y="390.4" transform="translate(729.07,0)" style="font-family: 'Open Sans', verdana, arial, sans-serif; font-size: 12px; fill: rgb(36, 36, 36); fill-opacity: 1; white-space: pre; opacity: 1;">random_forest</text></g></g><g class="yaxislayer-above"><path class="ytick ticks crisp" d="M79,0h-5" transform="translate(0,346.21000000000004)" style="stroke: rgb(68, 68, 68); stroke-opacity: 1; stroke-width: 1px;"/><path class="ytick ticks crisp" d="M79,0h-5" transform="translate(0,278.87)" style="stroke: rgb(68, 68, 68); stroke-opacity: 1; stroke-width: 1px;"/><path class="ytick ticks crisp" d="M79,0h-5" transform="translate(0,211.53)" style="stroke: rgb(68, 68, 68); stroke-opacity: 1; stroke-width: 1px;"/><path class="ytick ticks crisp" d="M79,0h-5" transform="translate(0,144.2)" style="stroke: rgb(68, 68, 68); stroke-opacity: 1; stroke-width: 1px;"/><g class="ytick"><text text-anchor="end" x="71.6" y="4.199999999999999" transform="translate(0,346.21000000000004)" style="font-family: 'Open Sans', verdana, arial, sans-serif; font-size: 12px; fill: rgb(36, 36, 36); fill-opacity: 1; white-space: pre; opacity: 1;">0.2</text></g><g class="ytick"><text text-anchor="end" x="71.6" y="4.199999999999999" style="font-family: 'Open Sans', verdana, arial, sans-serif; font-size: 12px; fill: rgb(36, 36, 36); fill-opacity: 1; white-space: pre; opacity: 1;" transform="translate(0,278.87)">0.4</text></g><g class="ytick"><text text-anchor="end" x="71.6" y="4.199999999999999" style="font-family: 'Open Sans', verdana, arial, sans-serif; font-size: 12px; fill: rgb(36, 36, 36); fill-opacity: 1; white-space: pre; opacity: 1;" transform="translate(0,211.53)">0.6</text></g><g class="ytick"><text text-anchor="end" x="71.6" y="4.199999999999999" style="font-family: 'Open Sans', verdana, arial, sans-serif; font-size: 12px; fill: rgb(36, 36, 36); fill-opacity: 1; white-space: pre; opacity: 1;" transform="translate(0,144.2)">0.8</text></g></g><g class="overaxes-above"/></g></g><g class="polarlayer"/><g class="smithlayer"/><g class="ternarylayer"/><g class="geolayer"/><g class="funnelarealayer"/><g class="pielayer"/><g class="iciclelayer"/><g class="treemaplayer"/><g class="sunburstlayer"/><g class="glimages"/><defs id="topdefs-9ac603"><g class="clips"/><clipPath id="legend9ac603"><rect width="142" height="48" x="0" y="0"/></clipPath></defs><g class="layer-above"><g class="imagelayer"/><g class="shapelayer"><g class="shape-group" data-index="0" clip-path="url(#clip9ac603y)"><path data-index="0" fill-rule="evenodd" d="M80,144.2L779,144.2" style="opacity: 0.3; stroke: rgb(0, 0, 0); stroke-opacity: 0; fill: rgb(0, 0, 0); fill-opacity: 1; stroke-width: 0px;"/></g></g></g><g class="infolayer"><g class="legend" pointer-events="all" transform="translate(792.98,100)"><rect class="bg" shape-rendering="crispEdges" width="142" height="48" x="0" y="0" style="stroke: rgb(68, 68, 68); stroke-opacity: 1; fill: rgb(255, 255, 255); fill-opacity: 1; stroke-width: 0px;"/><g class="scrollbox" transform="" clip-path="url(#legend9ac603)"><g class="groups"><g class="traces" transform="translate(0,14.5)" style="opacity: 1;"><text class="legendtext" text-anchor="start" x="40" y="4.680000000000001" style="font-family: 'Open Sans', verdana, arial, sans-serif; font-size: 12px; fill: rgb(36, 36, 36); fill-opacity: 1; white-space: pre;">Train-Test Split</text><g class="layers" style="opacity: 1;"><g class="legendfill"/><g class="legendlines"/><g class="legendsymbols"><g class="legendpoints"><path class="legendbox" d="M6,6H-6V-6H6Z" transform="translate(20,0)" style="stroke-width: 2px; fill: rgb(31, 119, 180); fill-opacity: 0.5; stroke: rgb(31, 119, 180); stroke-opacity: 1;"/></g></g></g><rect class="legendtoggle" x="0" y="-9.5" width="136.5" height="19" style="fill: rgb(0, 0, 0); fill-opacity: 0;"/></g><g class="traces" transform="translate(0,33.5)" style="opacity: 1;"><text class="legendtext" text-anchor="start" x="40" y="4.680000000000001" style="font-family: 'Open Sans', verdana, arial, sans-serif; font-size: 12px; fill: rgb(36, 36, 36); fill-opacity: 1; white-space: pre;">Cross Validation</text><g class="layers" style="opacity: 1;"><g class="legendfill"/><g class="legendlines"/><g class="legendsymbols"><g class="legendpoints"><path class="legendbox" d="M6,6H-6V-6H6Z" transform="translate(20,0)" style="stroke-width: 2px; fill: rgb(255, 127, 14); fill-opacity: 0.5; stroke: rgb(255, 127, 14); stroke-opacity: 1;"/></g></g></g><rect class="legendtoggle" x="0" y="-9.5" width="136.5" height="19" style="fill: rgb(0, 0, 0); fill-opacity: 0;"/></g></g></g><rect class="scrollbar" rx="20" ry="3" width="0" height="0" x="0" y="0" style="fill: rgb(128, 139, 164); fill-opacity: 1;"/></g><g class="g-gtitle"><text class="gtitle" x="47.35" y="50" text-anchor="start" dy="0em" style="font-family: 'Open Sans', verdana, arial, sans-serif; font-size: 17px; fill: rgb(36, 36, 36); opacity: 1; font-weight: normal; white-space: pre;"><tspan class="line" dy="0em" x="47.35" y="50"><tspan style="font-weight:bold">Accuracy in Predicting Planned Coal Plant Retirements</tspan></tspan><tspan class="line" dy="1.3em" x="47.35" y="50"><tspan style="font-size: 80%;">F1-Score Distribution Across 100 Randomized Runs</tspan></tspan></text></g><g class="g-xtitle"><text class="xtitle" x="429.5" y="417.700390625" text-anchor="middle" style="font-family: 'Open Sans', verdana, arial, sans-serif; font-size: 14px; fill: rgb(36, 36, 36); opacity: 1; font-weight: normal; white-space: pre;">Model</text></g><g class="g-ytitle"><text class="ytitle" transform="rotate(-90,27.674609375000003,235)" x="27.674609375000003" y="235" text-anchor="middle" style="font-family: 'Open Sans', verdana, arial, sans-serif; font-size: 14px; fill: rgb(36, 36, 36); opacity: 1; font-weight: normal; white-space: pre;">F1-Score</text></g></g></svg>