<?xml version="1.0" encoding="utf-8" standalone="no"?>
<!DOCTYPE svg PUBLIC "-//W3C//DTD SVG 1.1//EN"
  "http://www.w3.org/Graphics/SVG/1.1/DTD/svg11.dtd">
<!-- Created with matplotlib (https://matplotlib.org/) -->
<svg height="288pt" version="1.1" viewBox="0 0 576 288" width="576pt" xmlns="http://www.w3.org/2000/svg" xmlns:xlink="http://www.w3.org/1999/xlink">
 <metadata>
  <rdf:RDF xmlns:cc="http://creativecommons.org/ns#" xmlns:dc="http://purl.org/dc/elements/1.1/" xmlns:rdf="http://www.w3.org/1999/02/22-rdf-syntax-ns#">
   <cc:Work>
    <dc:type rdf:resource="http://purl.org/dc/dcmitype/StillImage"/>
    <dc:date>2023-12-24T16:55:18.794720</dc:date>
    <dc:format>image/svg+xml</dc:format>
    <dc:creator>
     <cc:Agent>
      <dc:title>Matplotlib v3.3.4, https://matplotlib.org/</dc:title>
     </cc:Agent>
    </dc:creator>
   </cc:Work>
  </rdf:RDF>
 </metadata>
 <defs>
  <style type="text/css">*{stroke-linecap:butt;stroke-linejoin:round;}</style>
 </defs>
 <g id="figure_1">
  <g id="patch_1">
   <path d="M 0 288 
L 576 288 
L 576 0 
L 0 0 
z
" style="fill:#ffffff;"/>
  </g>
  <g id="axes_1">
   <g id="LineCollection_1">
    <path clip-path="url(#p715e8e15e4)" d="M 200.985665 78.567018 
L 212.163958 96.321215 
" style="fill:none;stroke:#000000;stroke-width:0.5;"/>
    <path clip-path="url(#p715e8e15e4)" d="M 200.985665 78.567018 
L 250.048739 129.394739 
" style="fill:none;stroke:#000000;stroke-width:0.5;"/>
    <path clip-path="url(#p715e8e15e4)" d="M 200.985665 78.567018 
L 197.420325 98.349549 
" style="fill:none;stroke:#000000;stroke-width:0.5;"/>
    <path clip-path="url(#p715e8e15e4)" d="M 200.985665 78.567018 
L 164.770688 85.436613 
" style="fill:none;stroke:#000000;stroke-width:0.5;"/>
    <path clip-path="url(#p715e8e15e4)" d="M 200.985665 78.567018 
L 234.992769 126.547106 
" style="fill:none;stroke:#000000;stroke-width:0.5;"/>
    <path clip-path="url(#p715e8e15e4)" d="M 200.985665 78.567018 
L 171.036425 98.895226 
" style="fill:none;stroke:#000000;stroke-width:0.5;"/>
    <path clip-path="url(#p715e8e15e4)" d="M 200.985665 78.567018 
L 198.641204 115.398404 
" style="fill:none;stroke:#000000;stroke-width:0.5;"/>
    <path clip-path="url(#p715e8e15e4)" d="M 200.985665 78.567018 
L 216.252207 75.588362 
" style="fill:none;stroke:#000000;stroke-width:0.5;"/>
    <path clip-path="url(#p715e8e15e4)" d="M 234.992769 126.547106 
L 212.163958 96.321215 
" style="fill:none;stroke:#000000;stroke-width:0.5;"/>
    <path clip-path="url(#p715e8e15e4)" d="M 234.992769 126.547106 
L 261.991967 65.806352 
" style="fill:none;stroke:#000000;stroke-width:0.5;"/>
    <path clip-path="url(#p715e8e15e4)" d="M 234.992769 126.547106 
L 250.048739 129.394739 
" style="fill:none;stroke:#000000;stroke-width:0.5;"/>
    <path clip-path="url(#p715e8e15e4)" d="M 234.992769 126.547106 
L 290.452166 173.77638 
" style="fill:none;stroke:#000000;stroke-width:0.5;"/>
    <path clip-path="url(#p715e8e15e4)" d="M 234.992769 126.547106 
L 197.420325 98.349549 
" style="fill:none;stroke:#000000;stroke-width:0.5;"/>
    <path clip-path="url(#p715e8e15e4)" d="M 234.992769 126.547106 
L 164.770688 85.436613 
" style="fill:none;stroke:#000000;stroke-width:0.5;"/>
    <path clip-path="url(#p715e8e15e4)" d="M 234.992769 126.547106 
L 277.014936 183.437948 
" style="fill:none;stroke:#000000;stroke-width:0.5;"/>
    <path clip-path="url(#p715e8e15e4)" d="M 234.992769 126.547106 
L 302.581351 147.234644 
" style="fill:none;stroke:#000000;stroke-width:0.5;"/>
    <path clip-path="url(#p715e8e15e4)" d="M 234.992769 126.547106 
L 171.036425 98.895226 
" style="fill:none;stroke:#000000;stroke-width:0.5;"/>
    <path clip-path="url(#p715e8e15e4)" d="M 234.992769 126.547106 
L 198.641204 115.398404 
" style="fill:none;stroke:#000000;stroke-width:0.5;"/>
    <path clip-path="url(#p715e8e15e4)" d="M 234.992769 126.547106 
L 284.858129 132.866967 
" style="fill:none;stroke:#000000;stroke-width:0.5;"/>
    <path clip-path="url(#p715e8e15e4)" d="M 234.992769 126.547106 
L 250.829915 195.672396 
" style="fill:none;stroke:#000000;stroke-width:0.5;"/>
    <path clip-path="url(#p715e8e15e4)" d="M 234.992769 126.547106 
L 216.252207 75.588362 
" style="fill:none;stroke:#000000;stroke-width:0.5;"/>
    <path clip-path="url(#p715e8e15e4)" d="M 234.992769 126.547106 
L 240.928644 180.813269 
" style="fill:none;stroke:#000000;stroke-width:0.5;"/>
    <path clip-path="url(#p715e8e15e4)" d="M 234.992769 126.547106 
L 300.437602 127.905159 
" style="fill:none;stroke:#000000;stroke-width:0.5;"/>
    <path clip-path="url(#p715e8e15e4)" d="M 234.992769 126.547106 
L 333.238215 187.303744 
" style="fill:none;stroke:#000000;stroke-width:0.5;"/>
    <path clip-path="url(#p715e8e15e4)" d="M 234.992769 126.547106 
L 284.778086 152.939795 
" style="fill:none;stroke:#000000;stroke-width:0.5;"/>
    <path clip-path="url(#p715e8e15e4)" d="M 41.709509 44.45425 
L 113.716109 69.219755 
" style="fill:none;stroke:#000000;stroke-width:0.5;"/>
    <path clip-path="url(#p715e8e15e4)" d="M 41.709509 44.45425 
L 117.646832 82.561448 
" style="fill:none;stroke:#000000;stroke-width:0.5;"/>
    <path clip-path="url(#p715e8e15e4)" d="M 41.709509 44.45425 
L 39.986777 73.819028 
" style="fill:none;stroke:#000000;stroke-width:0.5;"/>
    <path clip-path="url(#p715e8e15e4)" d="M 41.709509 44.45425 
L 122.845955 57.827894 
" style="fill:none;stroke:#000000;stroke-width:0.5;"/>
    <path clip-path="url(#p715e8e15e4)" d="M 41.709509 44.45425 
L 64.70191 24.991736 
" style="fill:none;stroke:#000000;stroke-width:0.5;"/>
    <path clip-path="url(#p715e8e15e4)" d="M 41.709509 44.45425 
L 61.742263 53.409482 
" style="fill:none;stroke:#000000;stroke-width:0.5;"/>
    <path clip-path="url(#p715e8e15e4)" d="M 41.709509 44.45425 
L 52.084098 93.456549 
" style="fill:none;stroke:#000000;stroke-width:0.5;"/>
    <path clip-path="url(#p715e8e15e4)" d="M 41.709509 44.45425 
L 111.717285 96.648758 
" style="fill:none;stroke:#000000;stroke-width:0.5;"/>
    <path clip-path="url(#p715e8e15e4)" d="M 402.224844 261.488846 
L 384.894759 241.093634 
" style="fill:none;stroke:#000000;stroke-width:0.5;"/>
    <path clip-path="url(#p715e8e15e4)" d="M 402.224844 261.488846 
L 404.649374 216.831755 
" style="fill:none;stroke:#000000;stroke-width:0.5;"/>
    <path clip-path="url(#p715e8e15e4)" d="M 402.224844 261.488846 
L 377.122747 263.008264 
" style="fill:none;stroke:#000000;stroke-width:0.5;"/>
    <path clip-path="url(#p715e8e15e4)" d="M 402.224844 261.488846 
L 412.718695 197.688714 
" style="fill:none;stroke:#000000;stroke-width:0.5;"/>
    <path clip-path="url(#p715e8e15e4)" d="M 402.224844 261.488846 
L 420.813223 242.958875 
" style="fill:none;stroke:#000000;stroke-width:0.5;"/>
    <path clip-path="url(#p715e8e15e4)" d="M 402.224844 261.488846 
L 333.238215 187.303744 
" style="fill:none;stroke:#000000;stroke-width:0.5;"/>
    <path clip-path="url(#p715e8e15e4)" d="M 117.646832 82.561448 
L 113.716109 69.219755 
" style="fill:none;stroke:#000000;stroke-width:0.5;"/>
    <path clip-path="url(#p715e8e15e4)" d="M 117.646832 82.561448 
L 39.986777 73.819028 
" style="fill:none;stroke:#000000;stroke-width:0.5;"/>
    <path clip-path="url(#p715e8e15e4)" d="M 117.646832 82.561448 
L 122.845955 57.827894 
" style="fill:none;stroke:#000000;stroke-width:0.5;"/>
    <path clip-path="url(#p715e8e15e4)" d="M 117.646832 82.561448 
L 164.770688 85.436613 
" style="fill:none;stroke:#000000;stroke-width:0.5;"/>
    <path clip-path="url(#p715e8e15e4)" d="M 117.646832 82.561448 
L 64.70191 24.991736 
" style="fill:none;stroke:#000000;stroke-width:0.5;"/>
    <path clip-path="url(#p715e8e15e4)" d="M 117.646832 82.561448 
L 61.742263 53.409482 
" style="fill:none;stroke:#000000;stroke-width:0.5;"/>
    <path clip-path="url(#p715e8e15e4)" d="M 117.646832 82.561448 
L 171.036425 98.895226 
" style="fill:none;stroke:#000000;stroke-width:0.5;"/>
    <path clip-path="url(#p715e8e15e4)" d="M 117.646832 82.561448 
L 52.084098 93.456549 
" style="fill:none;stroke:#000000;stroke-width:0.5;"/>
    <path clip-path="url(#p715e8e15e4)" d="M 117.646832 82.561448 
L 111.717285 96.648758 
" style="fill:none;stroke:#000000;stroke-width:0.5;"/>
    <path clip-path="url(#p715e8e15e4)" d="M 198.641204 115.398404 
L 212.163958 96.321215 
" style="fill:none;stroke:#000000;stroke-width:0.5;"/>
    <path clip-path="url(#p715e8e15e4)" d="M 198.641204 115.398404 
L 250.048739 129.394739 
" style="fill:none;stroke:#000000;stroke-width:0.5;"/>
    <path clip-path="url(#p715e8e15e4)" d="M 198.641204 115.398404 
L 197.420325 98.349549 
" style="fill:none;stroke:#000000;stroke-width:0.5;"/>
    <path clip-path="url(#p715e8e15e4)" d="M 198.641204 115.398404 
L 164.770688 85.436613 
" style="fill:none;stroke:#000000;stroke-width:0.5;"/>
    <path clip-path="url(#p715e8e15e4)" d="M 198.641204 115.398404 
L 171.036425 98.895226 
" style="fill:none;stroke:#000000;stroke-width:0.5;"/>
    <path clip-path="url(#p715e8e15e4)" d="M 198.641204 115.398404 
L 216.252207 75.588362 
" style="fill:none;stroke:#000000;stroke-width:0.5;"/>
    <path clip-path="url(#p715e8e15e4)" d="M 61.742263 53.409482 
L 113.716109 69.219755 
" style="fill:none;stroke:#000000;stroke-width:0.5;"/>
    <path clip-path="url(#p715e8e15e4)" d="M 61.742263 53.409482 
L 39.986777 73.819028 
" style="fill:none;stroke:#000000;stroke-width:0.5;"/>
    <path clip-path="url(#p715e8e15e4)" d="M 61.742263 53.409482 
L 122.845955 57.827894 
" style="fill:none;stroke:#000000;stroke-width:0.5;"/>
    <path clip-path="url(#p715e8e15e4)" d="M 61.742263 53.409482 
L 64.70191 24.991736 
" style="fill:none;stroke:#000000;stroke-width:0.5;"/>
    <path clip-path="url(#p715e8e15e4)" d="M 61.742263 53.409482 
L 52.084098 93.456549 
" style="fill:none;stroke:#000000;stroke-width:0.5;"/>
    <path clip-path="url(#p715e8e15e4)" d="M 61.742263 53.409482 
L 111.717285 96.648758 
" style="fill:none;stroke:#000000;stroke-width:0.5;"/>
    <path clip-path="url(#p715e8e15e4)" d="M 164.770688 85.436613 
L 113.716109 69.219755 
" style="fill:none;stroke:#000000;stroke-width:0.5;"/>
    <path clip-path="url(#p715e8e15e4)" d="M 164.770688 85.436613 
L 212.163958 96.321215 
" style="fill:none;stroke:#000000;stroke-width:0.5;"/>
    <path clip-path="url(#p715e8e15e4)" d="M 164.770688 85.436613 
L 250.048739 129.394739 
" style="fill:none;stroke:#000000;stroke-width:0.5;"/>
    <path clip-path="url(#p715e8e15e4)" d="M 164.770688 85.436613 
L 122.845955 57.827894 
" style="fill:none;stroke:#000000;stroke-width:0.5;"/>
    <path clip-path="url(#p715e8e15e4)" d="M 164.770688 85.436613 
L 197.420325 98.349549 
" style="fill:none;stroke:#000000;stroke-width:0.5;"/>
    <path clip-path="url(#p715e8e15e4)" d="M 164.770688 85.436613 
L 171.036425 98.895226 
" style="fill:none;stroke:#000000;stroke-width:0.5;"/>
    <path clip-path="url(#p715e8e15e4)" d="M 164.770688 85.436613 
L 111.717285 96.648758 
" style="fill:none;stroke:#000000;stroke-width:0.5;"/>
    <path clip-path="url(#p715e8e15e4)" d="M 164.770688 85.436613 
L 216.252207 75.588362 
" style="fill:none;stroke:#000000;stroke-width:0.5;"/>
    <path clip-path="url(#p715e8e15e4)" d="M 277.014936 183.437948 
L 250.048739 129.394739 
" style="fill:none;stroke:#000000;stroke-width:0.5;"/>
    <path clip-path="url(#p715e8e15e4)" d="M 277.014936 183.437948 
L 290.452166 173.77638 
" style="fill:none;stroke:#000000;stroke-width:0.5;"/>
    <path clip-path="url(#p715e8e15e4)" d="M 277.014936 183.437948 
L 302.581351 147.234644 
" style="fill:none;stroke:#000000;stroke-width:0.5;"/>
    <path clip-path="url(#p715e8e15e4)" d="M 277.014936 183.437948 
L 284.858129 132.866967 
" style="fill:none;stroke:#000000;stroke-width:0.5;"/>
    <path clip-path="url(#p715e8e15e4)" d="M 277.014936 183.437948 
L 250.829915 195.672396 
" style="fill:none;stroke:#000000;stroke-width:0.5;"/>
    <path clip-path="url(#p715e8e15e4)" d="M 277.014936 183.437948 
L 240.928644 180.813269 
" style="fill:none;stroke:#000000;stroke-width:0.5;"/>
    <path clip-path="url(#p715e8e15e4)" d="M 277.014936 183.437948 
L 300.437602 127.905159 
" style="fill:none;stroke:#000000;stroke-width:0.5;"/>
    <path clip-path="url(#p715e8e15e4)" d="M 277.014936 183.437948 
L 333.238215 187.303744 
" style="fill:none;stroke:#000000;stroke-width:0.5;"/>
    <path clip-path="url(#p715e8e15e4)" d="M 277.014936 183.437948 
L 284.778086 152.939795 
" style="fill:none;stroke:#000000;stroke-width:0.5;"/>
    <path clip-path="url(#p715e8e15e4)" d="M 333.238215 187.303744 
L 250.048739 129.394739 
" style="fill:none;stroke:#000000;stroke-width:0.5;"/>
    <path clip-path="url(#p715e8e15e4)" d="M 333.238215 187.303744 
L 290.452166 173.77638 
" style="fill:none;stroke:#000000;stroke-width:0.5;"/>
    <path clip-path="url(#p715e8e15e4)" d="M 333.238215 187.303744 
L 384.894759 241.093634 
" style="fill:none;stroke:#000000;stroke-width:0.5;"/>
    <path clip-path="url(#p715e8e15e4)" d="M 333.238215 187.303744 
L 404.649374 216.831755 
" style="fill:none;stroke:#000000;stroke-width:0.5;"/>
    <path clip-path="url(#p715e8e15e4)" d="M 333.238215 187.303744 
L 302.581351 147.234644 
" style="fill:none;stroke:#000000;stroke-width:0.5;"/>
    <path clip-path="url(#p715e8e15e4)" d="M 333.238215 187.303744 
L 377.122747 263.008264 
" style="fill:none;stroke:#000000;stroke-width:0.5;"/>
    <path clip-path="url(#p715e8e15e4)" d="M 333.238215 187.303744 
L 412.718695 197.688714 
" style="fill:none;stroke:#000000;stroke-width:0.5;"/>
    <path clip-path="url(#p715e8e15e4)" d="M 333.238215 187.303744 
L 284.858129 132.866967 
" style="fill:none;stroke:#000000;stroke-width:0.5;"/>
    <path clip-path="url(#p715e8e15e4)" d="M 333.238215 187.303744 
L 420.813223 242.958875 
" style="fill:none;stroke:#000000;stroke-width:0.5;"/>
    <path clip-path="url(#p715e8e15e4)" d="M 333.238215 187.303744 
L 300.437602 127.905159 
" style="fill:none;stroke:#000000;stroke-width:0.5;"/>
    <path clip-path="url(#p715e8e15e4)" d="M 333.238215 187.303744 
L 284.778086 152.939795 
" style="fill:none;stroke:#000000;stroke-width:0.5;"/>
    <path clip-path="url(#p715e8e15e4)" d="M 284.858129 132.866967 
L 250.048739 129.394739 
" style="fill:none;stroke:#000000;stroke-width:0.5;"/>
    <path clip-path="url(#p715e8e15e4)" d="M 284.858129 132.866967 
L 290.452166 173.77638 
" style="fill:none;stroke:#000000;stroke-width:0.5;"/>
    <path clip-path="url(#p715e8e15e4)" d="M 284.858129 132.866967 
L 302.581351 147.234644 
" style="fill:none;stroke:#000000;stroke-width:0.5;"/>
    <path clip-path="url(#p715e8e15e4)" d="M 284.858129 132.866967 
L 300.437602 127.905159 
" style="fill:none;stroke:#000000;stroke-width:0.5;"/>
    <path clip-path="url(#p715e8e15e4)" d="M 284.858129 132.866967 
L 284.778086 152.939795 
" style="fill:none;stroke:#000000;stroke-width:0.5;"/>
    <path clip-path="url(#p715e8e15e4)" d="M 240.928644 180.813269 
L 250.048739 129.394739 
" style="fill:none;stroke:#000000;stroke-width:0.5;"/>
    <path clip-path="url(#p715e8e15e4)" d="M 240.928644 180.813269 
L 290.452166 173.77638 
" style="fill:none;stroke:#000000;stroke-width:0.5;"/>
    <path clip-path="url(#p715e8e15e4)" d="M 240.928644 180.813269 
L 250.829915 195.672396 
" style="fill:none;stroke:#000000;stroke-width:0.5;"/>
    <path clip-path="url(#p715e8e15e4)" d="M 197.420325 98.349549 
L 212.163958 96.321215 
" style="fill:none;stroke:#000000;stroke-width:0.5;"/>
    <path clip-path="url(#p715e8e15e4)" d="M 197.420325 98.349549 
L 250.048739 129.394739 
" style="fill:none;stroke:#000000;stroke-width:0.5;"/>
    <path clip-path="url(#p715e8e15e4)" d="M 197.420325 98.349549 
L 171.036425 98.895226 
" style="fill:none;stroke:#000000;stroke-width:0.5;"/>
    <path clip-path="url(#p715e8e15e4)" d="M 197.420325 98.349549 
L 216.252207 75.588362 
" style="fill:none;stroke:#000000;stroke-width:0.5;"/>
    <path clip-path="url(#p715e8e15e4)" d="M 300.437602 127.905159 
L 250.048739 129.394739 
" style="fill:none;stroke:#000000;stroke-width:0.5;"/>
    <path clip-path="url(#p715e8e15e4)" d="M 300.437602 127.905159 
L 290.452166 173.77638 
" style="fill:none;stroke:#000000;stroke-width:0.5;"/>
    <path clip-path="url(#p715e8e15e4)" d="M 300.437602 127.905159 
L 302.581351 147.234644 
" style="fill:none;stroke:#000000;stroke-width:0.5;"/>
    <path clip-path="url(#p715e8e15e4)" d="M 300.437602 127.905159 
L 284.778086 152.939795 
" style="fill:none;stroke:#000000;stroke-width:0.5;"/>
    <path clip-path="url(#p715e8e15e4)" d="M 171.036425 98.895226 
L 113.716109 69.219755 
" style="fill:none;stroke:#000000;stroke-width:0.5;"/>
    <path clip-path="url(#p715e8e15e4)" d="M 171.036425 98.895226 
L 212.163958 96.321215 
" style="fill:none;stroke:#000000;stroke-width:0.5;"/>
    <path clip-path="url(#p715e8e15e4)" d="M 171.036425 98.895226 
L 250.048739 129.394739 
" style="fill:none;stroke:#000000;stroke-width:0.5;"/>
    <path clip-path="url(#p715e8e15e4)" d="M 171.036425 98.895226 
L 122.845955 57.827894 
" style="fill:none;stroke:#000000;stroke-width:0.5;"/>
    <path clip-path="url(#p715e8e15e4)" d="M 171.036425 98.895226 
L 111.717285 96.648758 
" style="fill:none;stroke:#000000;stroke-width:0.5;"/>
    <path clip-path="url(#p715e8e15e4)" d="M 212.163958 96.321215 
L 250.048739 129.394739 
" style="fill:none;stroke:#000000;stroke-width:0.5;"/>
    <path clip-path="url(#p715e8e15e4)" d="M 212.163958 96.321215 
L 216.252207 75.588362 
" style="fill:none;stroke:#000000;stroke-width:0.5;"/>
    <path clip-path="url(#p715e8e15e4)" d="M 216.252207 75.588362 
L 261.991967 65.806352 
" style="fill:none;stroke:#000000;stroke-width:0.5;"/>
    <path clip-path="url(#p715e8e15e4)" d="M 216.252207 75.588362 
L 250.048739 129.394739 
" style="fill:none;stroke:#000000;stroke-width:0.5;"/>
    <path clip-path="url(#p715e8e15e4)" d="M 250.048739 129.394739 
L 261.991967 65.806352 
" style="fill:none;stroke:#000000;stroke-width:0.5;"/>
    <path clip-path="url(#p715e8e15e4)" d="M 250.048739 129.394739 
L 290.452166 173.77638 
" style="fill:none;stroke:#000000;stroke-width:0.5;"/>
    <path clip-path="url(#p715e8e15e4)" d="M 250.048739 129.394739 
L 302.581351 147.234644 
" style="fill:none;stroke:#000000;stroke-width:0.5;"/>
    <path clip-path="url(#p715e8e15e4)" d="M 250.048739 129.394739 
L 250.829915 195.672396 
" style="fill:none;stroke:#000000;stroke-width:0.5;"/>
    <path clip-path="url(#p715e8e15e4)" d="M 284.778086 152.939795 
L 302.581351 147.234644 
" style="fill:none;stroke:#000000;stroke-width:0.5;"/>
    <path clip-path="url(#p715e8e15e4)" d="M 64.70191 24.991736 
L 113.716109 69.219755 
" style="fill:none;stroke:#000000;stroke-width:0.5;"/>
    <path clip-path="url(#p715e8e15e4)" d="M 64.70191 24.991736 
L 39.986777 73.819028 
" style="fill:none;stroke:#000000;stroke-width:0.5;"/>
    <path clip-path="url(#p715e8e15e4)" d="M 64.70191 24.991736 
L 122.845955 57.827894 
" style="fill:none;stroke:#000000;stroke-width:0.5;"/>
    <path clip-path="url(#p715e8e15e4)" d="M 64.70191 24.991736 
L 52.084098 93.456549 
" style="fill:none;stroke:#000000;stroke-width:0.5;"/>
    <path clip-path="url(#p715e8e15e4)" d="M 64.70191 24.991736 
L 111.717285 96.648758 
" style="fill:none;stroke:#000000;stroke-width:0.5;"/>
    <path clip-path="url(#p715e8e15e4)" d="M 384.894759 241.093634 
L 377.122747 263.008264 
" style="fill:none;stroke:#000000;stroke-width:0.5;"/>
    <path clip-path="url(#p715e8e15e4)" d="M 384.894759 241.093634 
L 420.813223 242.958875 
" style="fill:none;stroke:#000000;stroke-width:0.5;"/>
    <path clip-path="url(#p715e8e15e4)" d="M 113.716109 69.219755 
L 39.986777 73.819028 
" style="fill:none;stroke:#000000;stroke-width:0.5;"/>
    <path clip-path="url(#p715e8e15e4)" d="M 113.716109 69.219755 
L 122.845955 57.827894 
" style="fill:none;stroke:#000000;stroke-width:0.5;"/>
    <path clip-path="url(#p715e8e15e4)" d="M 113.716109 69.219755 
L 52.084098 93.456549 
" style="fill:none;stroke:#000000;stroke-width:0.5;"/>
    <path clip-path="url(#p715e8e15e4)" d="M 113.716109 69.219755 
L 111.717285 96.648758 
" style="fill:none;stroke:#000000;stroke-width:0.5;"/>
    <path clip-path="url(#p715e8e15e4)" d="M 404.649374 216.831755 
L 412.718695 197.688714 
" style="fill:none;stroke:#000000;stroke-width:0.5;"/>
    <path clip-path="url(#p715e8e15e4)" d="M 404.649374 216.831755 
L 420.813223 242.958875 
" style="fill:none;stroke:#000000;stroke-width:0.5;"/>
    <path clip-path="url(#p715e8e15e4)" d="M 412.718695 197.688714 
L 420.813223 242.958875 
" style="fill:none;stroke:#000000;stroke-width:0.5;"/>
    <path clip-path="url(#p715e8e15e4)" d="M 39.986777 73.819028 
L 122.845955 57.827894 
" style="fill:none;stroke:#000000;stroke-width:0.5;"/>
    <path clip-path="url(#p715e8e15e4)" d="M 39.986777 73.819028 
L 52.084098 93.456549 
" style="fill:none;stroke:#000000;stroke-width:0.5;"/>
    <path clip-path="url(#p715e8e15e4)" d="M 39.986777 73.819028 
L 111.717285 96.648758 
" style="fill:none;stroke:#000000;stroke-width:0.5;"/>
    <path clip-path="url(#p715e8e15e4)" d="M 290.452166 173.77638 
L 302.581351 147.234644 
" style="fill:none;stroke:#000000;stroke-width:0.5;"/>
    <path clip-path="url(#p715e8e15e4)" d="M 290.452166 173.77638 
L 250.829915 195.672396 
" style="fill:none;stroke:#000000;stroke-width:0.5;"/>
    <path clip-path="url(#p715e8e15e4)" d="M 52.084098 93.456549 
L 122.845955 57.827894 
" style="fill:none;stroke:#000000;stroke-width:0.5;"/>
    <path clip-path="url(#p715e8e15e4)" d="M 52.084098 93.456549 
L 111.717285 96.648758 
" style="fill:none;stroke:#000000;stroke-width:0.5;"/>
    <path clip-path="url(#p715e8e15e4)" d="M 122.845955 57.827894 
L 111.717285 96.648758 
" style="fill:none;stroke:#000000;stroke-width:0.5;"/>
    <path clip-path="url(#p715e8e15e4)" d="M 420.813223 242.958875 
L 377.122747 263.008264 
" style="fill:none;stroke:#000000;stroke-width:0.5;"/>
   </g>
   <g id="PathCollection_1">
    <path clip-path="url(#p715e8e15e4)" d="M 200.985665 84.044243 
C 202.438243 84.044243 203.831522 83.467128 204.858649 82.440001 
C 205.885776 81.412874 206.462891 80.019595 206.462891 78.567018 
C 206.462891 77.11444 205.885776 75.721161 204.858649 74.694034 
C 203.831522 73.666907 202.438243 73.089792 200.985665 73.089792 
C 199.533088 73.089792 198.139809 73.666907 197.112682 74.694034 
C 196.085555 75.721161 195.50844 77.11444 195.50844 78.567018 
C 195.50844 80.019595 196.085555 81.412874 197.112682 82.440001 
C 198.139809 83.467128 199.533088 84.044243 200.985665 84.044243 
z
" style="fill:#3182bd;stroke:#ffffff;"/>
    <path clip-path="url(#p715e8e15e4)" d="M 234.992769 134.762944 
C 237.171635 134.762944 239.261553 133.897271 240.802244 132.356581 
C 242.342935 130.81589 243.208607 128.725971 243.208607 126.547106 
C 243.208607 124.36824 242.342935 122.278321 240.802244 120.737631 
C 239.261553 119.19694 237.171635 118.331267 234.992769 118.331267 
C 232.813903 118.331267 230.723985 119.19694 229.183294 120.737631 
C 227.642603 122.278321 226.776931 124.36824 226.776931 126.547106 
C 226.776931 128.725971 227.642603 130.81589 229.183294 132.356581 
C 230.723985 133.897271 232.813903 134.762944 234.992769 134.762944 
z
" style="fill:#e6550d;stroke:#ffffff;"/>
    <path clip-path="url(#p715e8e15e4)" d="M 41.709509 49.931476 
C 43.162087 49.931476 44.555366 49.354361 45.582493 48.327234 
C 46.60962 47.300107 47.186735 45.906828 47.186735 44.45425 
C 47.186735 43.001673 46.60962 41.608394 45.582493 40.581267 
C 44.555366 39.55414 43.162087 38.977025 41.709509 38.977025 
C 40.256932 38.977025 38.863653 39.55414 37.836526 40.581267 
C 36.809399 41.608394 36.232284 43.001673 36.232284 44.45425 
C 36.232284 45.906828 36.809399 47.300107 37.836526 48.327234 
C 38.863653 49.354361 40.256932 49.931476 41.709509 49.931476 
z
" style="fill:#74c476;stroke:#ffffff;"/>
    <path clip-path="url(#p715e8e15e4)" d="M 402.224844 266.232262 
C 403.482813 266.232262 404.689428 265.732466 405.578946 264.842948 
C 406.468465 263.953429 406.968261 262.746814 406.968261 261.488846 
C 406.968261 260.230877 406.468465 259.024262 405.578946 258.134744 
C 404.689428 257.245225 403.482813 256.745429 402.224844 256.745429 
C 400.966876 256.745429 399.760261 257.245225 398.870742 258.134744 
C 397.981224 259.024262 397.481428 260.230877 397.481428 261.488846 
C 397.481428 262.746814 397.981224 263.953429 398.870742 264.842948 
C 399.760261 265.732466 400.966876 266.232262 402.224844 266.232262 
z
" style="fill:#31a354;stroke:#ffffff;"/>
    <path clip-path="url(#p715e8e15e4)" d="M 117.646832 88.685172 
C 119.270863 88.685172 120.828596 88.039938 121.976959 86.891575 
C 123.125323 85.743212 123.770557 84.185479 123.770557 82.561448 
C 123.770557 80.937417 123.125323 79.379684 121.976959 78.231321 
C 120.828596 77.082958 119.270863 76.437724 117.646832 76.437724 
C 116.022802 76.437724 114.465069 77.082958 113.316705 78.231321 
C 112.168342 79.379684 111.523108 80.937417 111.523108 82.561448 
C 111.523108 84.185479 112.168342 85.743212 113.316705 86.891575 
C 114.465069 88.039938 116.022802 88.685172 117.646832 88.685172 
z
" style="fill:#31a354;stroke:#ffffff;"/>
    <path clip-path="url(#p715e8e15e4)" d="M 198.641204 120.87563 
C 200.093782 120.87563 201.487061 120.298515 202.514188 119.271388 
C 203.541315 118.244261 204.11843 116.850982 204.11843 115.398404 
C 204.11843 113.945827 203.541315 112.552548 202.514188 111.525421 
C 201.487061 110.498294 200.093782 109.921179 198.641204 109.921179 
C 197.188627 109.921179 195.795348 110.498294 194.768221 111.525421 
C 193.741094 112.552548 193.163979 113.945827 193.163979 115.398404 
C 193.163979 116.850982 193.741094 118.244261 194.768221 119.271388 
C 195.795348 120.298515 197.188627 120.87563 198.641204 120.87563 
z
" style="fill:#3182bd;stroke:#ffffff;"/>
    <path clip-path="url(#p715e8e15e4)" d="M 61.742263 58.886708 
C 63.19484 58.886708 64.588119 58.309593 65.615246 57.282466 
C 66.642373 56.255338 67.219488 54.86206 67.219488 53.409482 
C 67.219488 51.956905 66.642373 50.563626 65.615246 49.536499 
C 64.588119 48.509372 63.19484 47.932257 61.742263 47.932257 
C 60.289685 47.932257 58.896406 48.509372 57.869279 49.536499 
C 56.842152 50.563626 56.265037 51.956905 56.265037 53.409482 
C 56.265037 54.86206 56.842152 56.255338 57.869279 57.282466 
C 58.896406 58.309593 60.289685 58.886708 61.742263 58.886708 
z
" style="fill:#74c476;stroke:#ffffff;"/>
    <path clip-path="url(#p715e8e15e4)" d="M 164.770688 92.144817 
C 166.549725 92.144817 168.256136 91.437998 169.514105 90.18003 
C 170.772073 88.922061 171.478892 87.21565 171.478892 85.436613 
C 171.478892 83.657577 170.772073 81.951165 169.514105 80.693197 
C 168.256136 79.435228 166.549725 78.728409 164.770688 78.728409 
C 162.991652 78.728409 161.28524 79.435228 160.027272 80.693197 
C 158.769303 81.951165 158.062484 83.657577 158.062484 85.436613 
C 158.062484 87.21565 158.769303 88.922061 160.027272 90.18003 
C 161.28524 91.437998 162.991652 92.144817 164.770688 92.144817 
z
" style="fill:#3182bd;stroke:#ffffff;"/>
    <path clip-path="url(#p715e8e15e4)" d="M 277.014936 189.561672 
C 278.638966 189.561672 280.196699 188.916438 281.345063 187.768075 
C 282.493426 186.619712 283.13866 185.061979 283.13866 183.437948 
C 283.13866 181.813917 282.493426 180.256184 281.345063 179.107821 
C 280.196699 177.959458 278.638966 177.314224 277.014936 177.314224 
C 275.390905 177.314224 273.833172 177.959458 272.684809 179.107821 
C 271.536445 180.256184 270.891211 181.813917 270.891211 183.437948 
C 270.891211 185.061979 271.536445 186.619712 272.684809 187.768075 
C 273.833172 188.916438 275.390905 189.561672 277.014936 189.561672 
z
" style="fill:#fd8d3c;stroke:#ffffff;"/>
    <path clip-path="url(#p715e8e15e4)" d="M 333.238215 194.549433 
C 335.159794 194.549433 337.002929 193.785981 338.36169 192.42722 
C 339.720452 191.068458 340.483903 189.225323 340.483903 187.303744 
C 340.483903 185.382165 339.720452 183.539031 338.36169 182.180269 
C 337.002929 180.821507 335.159794 180.058056 333.238215 180.058056 
C 331.316636 180.058056 329.473501 180.821507 328.114739 182.180269 
C 326.755978 183.539031 325.992526 185.382165 325.992526 187.303744 
C 325.992526 189.225323 326.755978 191.068458 328.114739 192.42722 
C 329.473501 193.785981 331.316636 194.549433 333.238215 194.549433 
z
" style="fill:#fdae6b;stroke:#ffffff;"/>
    <path clip-path="url(#p715e8e15e4)" d="M 284.858129 138.344192 
C 286.310706 138.344192 287.703985 137.767077 288.731112 136.73995 
C 289.758239 135.712823 290.335354 134.319544 290.335354 132.866967 
C 290.335354 131.41439 289.758239 130.021111 288.731112 128.993983 
C 287.703985 127.966856 286.310706 127.389741 284.858129 127.389741 
C 283.405552 127.389741 282.012273 127.966856 280.985145 128.993983 
C 279.958018 130.021111 279.380903 131.41439 279.380903 132.866967 
C 279.380903 134.319544 279.958018 135.712823 280.985145 136.73995 
C 282.012273 137.767077 283.405552 138.344192 284.858129 138.344192 
z
" style="fill:#fdae6b;stroke:#ffffff;"/>
    <path clip-path="url(#p715e8e15e4)" d="M 240.928644 185.143396 
C 242.077007 185.143396 243.178491 184.687146 243.990506 183.875131 
C 244.802521 183.063115 245.258771 181.961632 245.258771 180.813269 
C 245.258771 179.664905 244.802521 178.563422 243.990506 177.751406 
C 243.178491 176.939391 242.077007 176.483142 240.928644 176.483142 
C 239.780281 176.483142 238.678797 176.939391 237.866782 177.751406 
C 237.054766 178.563422 236.598517 179.664905 236.598517 180.813269 
C 236.598517 181.961632 237.054766 183.063115 237.866782 183.875131 
C 238.678797 184.687146 239.780281 185.143396 240.928644 185.143396 
z
" style="fill:#31a354;stroke:#ffffff;"/>
    <path clip-path="url(#p715e8e15e4)" d="M 197.420325 103.826775 
C 198.872902 103.826775 200.266181 103.24966 201.293308 102.222533 
C 202.320435 101.195405 202.89755 99.802126 202.89755 98.349549 
C 202.89755 96.896972 202.320435 95.503693 201.293308 94.476566 
C 200.266181 93.449439 198.872902 92.872324 197.420325 92.872324 
C 195.967747 92.872324 194.574468 93.449439 193.547341 94.476566 
C 192.520214 95.503693 191.943099 96.896972 191.943099 98.349549 
C 191.943099 99.802126 192.520214 101.195405 193.547341 102.222533 
C 194.574468 103.24966 195.967747 103.826775 197.420325 103.826775 
z
" style="fill:#3182bd;stroke:#ffffff;"/>
    <path clip-path="url(#p715e8e15e4)" d="M 300.437602 133.382384 
C 301.890179 133.382384 303.283458 132.805269 304.310585 131.778142 
C 305.337712 130.751015 305.914827 129.357736 305.914827 127.905159 
C 305.914827 126.452582 305.337712 125.059303 304.310585 124.032175 
C 303.283458 123.005048 301.890179 122.427933 300.437602 122.427933 
C 298.985025 122.427933 297.591746 123.005048 296.564618 124.032175 
C 295.537491 125.059303 294.960376 126.452582 294.960376 127.905159 
C 294.960376 129.357736 295.537491 130.751015 296.564618 131.778142 
C 297.591746 132.805269 298.985025 133.382384 300.437602 133.382384 
z
" style="fill:#fdae6b;stroke:#ffffff;"/>
    <path clip-path="url(#p715e8e15e4)" d="M 171.036425 105.317842 
C 172.739723 105.317842 174.373487 104.641114 175.577901 103.436701 
C 176.782314 102.232288 177.459042 100.598523 177.459042 98.895226 
C 177.459042 97.191928 176.782314 95.558163 175.577901 94.35375 
C 174.373487 93.149337 172.739723 92.472609 171.036425 92.472609 
C 169.333128 92.472609 167.699363 93.149337 166.49495 94.35375 
C 165.290536 95.558163 164.613809 97.191928 164.613809 98.895226 
C 164.613809 100.598523 165.290536 102.232288 166.49495 103.436701 
C 167.699363 104.641114 169.333128 105.317842 171.036425 105.317842 
z
" style="fill:#3182bd;stroke:#ffffff;"/>
    <path clip-path="url(#p715e8e15e4)" d="M 212.163958 101.798441 
C 213.616535 101.798441 215.009814 101.221326 216.036941 100.194199 
C 217.064068 99.167071 217.641183 97.773792 217.641183 96.321215 
C 217.641183 94.868638 217.064068 93.475359 216.036941 92.448232 
C 215.009814 91.421105 213.616535 90.84399 212.163958 90.84399 
C 210.71138 90.84399 209.318101 91.421105 208.290974 92.448232 
C 207.263847 93.475359 206.686732 94.868638 206.686732 96.321215 
C 206.686732 97.773792 207.263847 99.167071 208.290974 100.194199 
C 209.318101 101.221326 210.71138 101.798441 212.163958 101.798441 
z
" style="fill:#3182bd;stroke:#ffffff;"/>
    <path clip-path="url(#p715e8e15e4)" d="M 216.252207 81.065588 
C 217.704784 81.065588 219.098063 80.488473 220.125191 79.461346 
C 221.152318 78.434218 221.729433 77.040939 221.729433 75.588362 
C 221.729433 74.135785 221.152318 72.742506 220.125191 71.715379 
C 219.098063 70.688252 217.704784 70.111137 216.252207 70.111137 
C 214.79963 70.111137 213.406351 70.688252 212.379224 71.715379 
C 211.352097 72.742506 210.774982 74.135785 210.774982 75.588362 
C 210.774982 77.040939 211.352097 78.434218 212.379224 79.461346 
C 213.406351 80.488473 214.79963 81.065588 216.252207 81.065588 
z
" style="fill:#fdae6b;stroke:#ffffff;"/>
    <path clip-path="url(#p715e8e15e4)" d="M 250.048739 137.379098 
C 252.166216 137.379098 254.197252 136.537816 255.694534 135.040533 
C 257.191816 133.543251 258.033099 131.512215 258.033099 129.394739 
C 258.033099 127.277262 257.191816 125.246226 255.694534 123.748944 
C 254.197252 122.251661 252.166216 121.410379 250.048739 121.410379 
C 247.931262 121.410379 245.900227 122.251661 244.402944 123.748944 
C 242.905662 125.246226 242.064379 127.277262 242.064379 129.394739 
C 242.064379 131.512215 242.905662 133.543251 244.402944 135.040533 
C 245.900227 136.537816 247.931262 137.379098 250.048739 137.379098 
z
" style="fill:#e6550d;stroke:#ffffff;"/>
    <path clip-path="url(#p715e8e15e4)" d="M 284.778086 157.683211 
C 286.036055 157.683211 287.24267 157.183415 288.132188 156.293897 
C 289.021706 155.404379 289.521502 154.197764 289.521502 152.939795 
C 289.521502 151.681826 289.021706 150.475211 288.132188 149.585693 
C 287.24267 148.696175 286.036055 148.196379 284.778086 148.196379 
C 283.520117 148.196379 282.313502 148.696175 281.423984 149.585693 
C 280.534466 150.475211 280.034669 151.681826 280.034669 152.939795 
C 280.034669 154.197764 280.534466 155.404379 281.423984 156.293897 
C 282.313502 157.183415 283.520117 157.683211 284.778086 157.683211 
z
" style="fill:#a1d99b;stroke:#ffffff;"/>
    <path clip-path="url(#p715e8e15e4)" d="M 261.991967 69.160454 
C 262.881486 69.160454 263.734691 68.807045 264.363676 68.178061 
C 264.99266 67.549076 265.346069 66.695871 265.346069 65.806352 
C 265.346069 64.916834 264.99266 64.063629 264.363676 63.434644 
C 263.734691 62.80566 262.881486 62.45225 261.991967 62.45225 
C 261.102449 62.45225 260.249244 62.80566 259.620259 63.434644 
C 258.991275 64.063629 258.637865 64.916834 258.637865 65.806352 
C 258.637865 66.695871 258.991275 67.549076 259.620259 68.178061 
C 260.249244 68.807045 261.102449 69.160454 261.991967 69.160454 
z
" style="fill:#31a354;stroke:#ffffff;"/>
    <path clip-path="url(#p715e8e15e4)" d="M 64.70191 30.468961 
C 66.154487 30.468961 67.547766 29.891846 68.574893 28.864719 
C 69.60202 27.837592 70.179136 26.444313 70.179136 24.991736 
C 70.179136 23.539158 69.60202 22.145879 68.574893 21.118752 
C 67.547766 20.091625 66.154487 19.51451 64.70191 19.51451 
C 63.249333 19.51451 61.856054 20.091625 60.828927 21.118752 
C 59.801799 22.145879 59.224684 23.539158 59.224684 24.991736 
C 59.224684 26.444313 59.801799 27.837592 60.828927 28.864719 
C 61.856054 29.891846 63.249333 30.468961 64.70191 30.468961 
z
" style="fill:#74c476;stroke:#ffffff;"/>
    <path clip-path="url(#p715e8e15e4)" d="M 384.894759 244.966617 
C 385.921886 244.966617 386.907083 244.558535 387.633371 243.832247 
C 388.35966 243.105958 388.767742 242.120761 388.767742 241.093634 
C 388.767742 240.066507 388.35966 239.08131 387.633371 238.355021 
C 386.907083 237.628733 385.921886 237.220651 384.894759 237.220651 
C 383.867631 237.220651 382.882434 237.628733 382.156146 238.355021 
C 381.429857 239.08131 381.021775 240.066507 381.021775 241.093634 
C 381.021775 242.120761 381.429857 243.105958 382.156146 243.832247 
C 382.882434 244.558535 383.867631 244.966617 384.894759 244.966617 
z
" style="fill:#a1d99b;stroke:#ffffff;"/>
    <path clip-path="url(#p715e8e15e4)" d="M 113.716109 75.343479 
C 115.340139 75.343479 116.897873 74.698245 118.046236 73.549882 
C 119.194599 72.401519 119.839833 70.843785 119.839833 69.219755 
C 119.839833 67.595724 119.194599 66.037991 118.046236 64.889628 
C 116.897873 63.741265 115.340139 63.09603 113.716109 63.09603 
C 112.092078 63.09603 110.534345 63.741265 109.385982 64.889628 
C 108.237619 66.037991 107.592384 67.595724 107.592384 69.219755 
C 107.592384 70.843785 108.237619 72.401519 109.385982 73.549882 
C 110.534345 74.698245 112.092078 75.343479 113.716109 75.343479 
z
" style="fill:#31a354;stroke:#ffffff;"/>
    <path clip-path="url(#p715e8e15e4)" d="M 404.649374 220.704739 
C 405.676501 220.704739 406.661698 220.296657 407.387987 219.570368 
C 408.114275 218.84408 408.522357 217.858883 408.522357 216.831755 
C 408.522357 215.804628 408.114275 214.819431 407.387987 214.093143 
C 406.661698 213.366854 405.676501 212.958772 404.649374 212.958772 
C 403.622247 212.958772 402.63705 213.366854 401.910761 214.093143 
C 401.184473 214.819431 400.776391 215.804628 400.776391 216.831755 
C 400.776391 217.858883 401.184473 218.84408 401.910761 219.570368 
C 402.63705 220.296657 403.622247 220.704739 404.649374 220.704739 
z
" style="fill:#a1d99b;stroke:#ffffff;"/>
    <path clip-path="url(#p715e8e15e4)" d="M 412.718695 201.561697 
C 413.745822 201.561697 414.731019 201.153615 415.457308 200.427327 
C 416.183596 199.701038 416.591678 198.715841 416.591678 197.688714 
C 416.591678 196.661587 416.183596 195.67639 415.457308 194.950101 
C 414.731019 194.223813 413.745822 193.815731 412.718695 193.815731 
C 411.691568 193.815731 410.706371 194.223813 409.980082 194.950101 
C 409.253793 195.67639 408.845711 196.661587 408.845711 197.688714 
C 408.845711 198.715841 409.253793 199.701038 409.980082 200.427327 
C 410.706371 201.153615 411.691568 201.561697 412.718695 201.561697 
z
" style="fill:#a1d99b;stroke:#ffffff;"/>
    <path clip-path="url(#p715e8e15e4)" d="M 39.986777 79.296254 
C 41.439354 79.296254 42.832633 78.719139 43.85976 77.692012 
C 44.886887 76.664885 45.464002 75.271606 45.464002 73.819028 
C 45.464002 72.366451 44.886887 70.973172 43.85976 69.946045 
C 42.832633 68.918918 41.439354 68.341803 39.986777 68.341803 
C 38.5342 68.341803 37.140921 68.918918 36.113794 69.946045 
C 35.086666 70.973172 34.509551 72.366451 34.509551 73.819028 
C 34.509551 75.271606 35.086666 76.664885 36.113794 77.692012 
C 37.140921 78.719139 38.5342 79.296254 39.986777 79.296254 
z
" style="fill:#74c476;stroke:#ffffff;"/>
    <path clip-path="url(#p715e8e15e4)" d="M 290.452166 179.585855 
C 291.992857 179.585855 293.470652 178.973733 294.560085 177.8843 
C 295.649518 176.794867 296.261641 175.317071 296.261641 173.77638 
C 296.261641 172.23569 295.649518 170.757894 294.560085 169.668461 
C 293.470652 168.579028 291.992857 167.966905 290.452166 167.966905 
C 288.911475 167.966905 287.43368 168.579028 286.344247 169.668461 
C 285.254814 170.757894 284.642691 172.23569 284.642691 173.77638 
C 284.642691 175.317071 285.254814 176.794867 286.344247 177.8843 
C 287.43368 178.973733 288.911475 179.585855 290.452166 179.585855 
z
" style="fill:#fdae6b;stroke:#ffffff;"/>
    <path clip-path="url(#p715e8e15e4)" d="M 52.084098 98.933774 
C 53.536676 98.933774 54.929954 98.356659 55.957082 97.329532 
C 56.984209 96.302405 57.561324 94.909126 57.561324 93.456549 
C 57.561324 92.003971 56.984209 90.610692 55.957082 89.583565 
C 54.929954 88.556438 53.536676 87.979323 52.084098 87.979323 
C 50.631521 87.979323 49.238242 88.556438 48.211115 89.583565 
C 47.183988 90.610692 46.606873 92.003971 46.606873 93.456549 
C 46.606873 94.909126 47.183988 96.302405 48.211115 97.329532 
C 49.238242 98.356659 50.631521 98.933774 52.084098 98.933774 
z
" style="fill:#74c476;stroke:#ffffff;"/>
    <path clip-path="url(#p715e8e15e4)" d="M 122.845955 63.951619 
C 124.469985 63.951619 126.027719 63.306384 127.176082 62.158021 
C 128.324445 61.009658 128.969679 59.451925 128.969679 57.827894 
C 128.969679 56.203863 128.324445 54.64613 127.176082 53.497767 
C 126.027719 52.349404 124.469985 51.70417 122.845955 51.70417 
C 121.221924 51.70417 119.664191 52.349404 118.515828 53.497767 
C 117.367465 54.64613 116.72223 56.203863 116.72223 57.827894 
C 116.72223 59.451925 117.367465 61.009658 118.515828 62.158021 
C 119.664191 63.306384 121.221924 63.951619 122.845955 63.951619 
z
" style="fill:#31a354;stroke:#ffffff;"/>
    <path clip-path="url(#p715e8e15e4)" d="M 111.717285 102.772483 
C 113.341316 102.772483 114.899049 102.127248 116.047412 100.978885 
C 117.195776 99.830522 117.84101 98.272789 117.84101 96.648758 
C 117.84101 95.024728 117.195776 93.466994 116.047412 92.318631 
C 114.899049 91.170268 113.341316 90.525034 111.717285 90.525034 
C 110.093255 90.525034 108.535522 91.170268 107.387158 92.318631 
C 106.238795 93.466994 105.593561 95.024728 105.593561 96.648758 
C 105.593561 98.272789 106.238795 99.830522 107.387158 100.978885 
C 108.535522 102.127248 110.093255 102.772483 111.717285 102.772483 
z
" style="fill:#31a354;stroke:#ffffff;"/>
    <path clip-path="url(#p715e8e15e4)" d="M 420.813223 247.702292 
C 422.071192 247.702292 423.277807 247.202495 424.167325 246.312977 
C 425.056843 245.423459 425.55664 244.216844 425.55664 242.958875 
C 425.55664 241.700906 425.056843 240.494291 424.167325 239.604773 
C 423.277807 238.715255 422.071192 238.215459 420.813223 238.215459 
C 419.555254 238.215459 418.348639 238.715255 417.459121 239.604773 
C 416.569603 240.494291 416.069807 241.700906 416.069807 242.958875 
C 416.069807 244.216844 416.569603 245.423459 417.459121 246.312977 
C 418.348639 247.202495 419.555254 247.702292 420.813223 247.702292 
z
" style="fill:#fdd0a2;stroke:#ffffff;"/>
    <path clip-path="url(#p715e8e15e4)" d="M 250.829915 200.002523 
C 251.978278 200.002523 253.079761 199.546274 253.891777 198.734258 
C 254.703792 197.922243 255.160042 196.820759 255.160042 195.672396 
C 255.160042 194.524033 254.703792 193.422549 253.891777 192.610534 
C 253.079761 191.798518 251.978278 191.342269 250.829915 191.342269 
C 249.681551 191.342269 248.580068 191.798518 247.768052 192.610534 
C 246.956037 193.422549 246.499788 194.524033 246.499788 195.672396 
C 246.499788 196.820759 246.956037 197.922243 247.768052 198.734258 
C 248.580068 199.546274 249.681551 200.002523 250.829915 200.002523 
z
" style="fill:#31a354;stroke:#ffffff;"/>
    <path clip-path="url(#p715e8e15e4)" d="M 302.581351 152.71187 
C 304.033929 152.71187 305.427207 152.134755 306.454335 151.107627 
C 307.481462 150.0805 308.058577 148.687221 308.058577 147.234644 
C 308.058577 145.782067 307.481462 144.388788 306.454335 143.361661 
C 305.427207 142.334533 304.033929 141.757418 302.581351 141.757418 
C 301.128774 141.757418 299.735495 142.334533 298.708368 143.361661 
C 297.681241 144.388788 297.104126 145.782067 297.104126 147.234644 
C 297.104126 148.687221 297.681241 150.0805 298.708368 151.107627 
C 299.735495 152.134755 301.128774 152.71187 302.581351 152.71187 
z
" style="fill:#fdae6b;stroke:#ffffff;"/>
    <path clip-path="url(#p715e8e15e4)" d="M 377.122747 266.881248 
C 378.149874 266.881248 379.135071 266.473166 379.86136 265.746877 
C 380.587648 265.020589 380.99573 264.035392 380.99573 263.008264 
C 380.99573 261.981137 380.587648 260.99594 379.86136 260.269652 
C 379.135071 259.543363 378.149874 259.135281 377.122747 259.135281 
C 376.09562 259.135281 375.110423 259.543363 374.384134 260.269652 
C 373.657845 260.99594 373.249763 261.981137 373.249763 263.008264 
C 373.249763 264.035392 373.657845 265.020589 374.384134 265.746877 
C 375.110423 266.473166 376.09562 266.881248 377.122747 266.881248 
z
" style="fill:#a1d99b;stroke:#ffffff;"/>
   </g>
   <g id="PathCollection_2">
    <path clip-path="url(#p715e8e15e4)" d="M 200.985665 85.638085 
C 202.860935 85.638085 204.65965 84.893033 205.985665 83.567018 
C 207.311681 82.241002 208.056733 80.442287 208.056733 78.567018 
C 208.056733 76.691748 207.311681 74.893033 205.985665 73.567018 
C 204.65965 72.241002 202.860935 71.49595 200.985665 71.49595 
C 199.110396 71.49595 197.311681 72.241002 195.985665 73.567018 
C 194.65965 74.893033 193.914598 76.691748 193.914598 78.567018 
C 193.914598 80.442287 194.65965 82.241002 195.985665 83.567018 
C 197.311681 84.893033 199.110396 85.638085 200.985665 85.638085 
z
" style="fill:#3182bd;stroke:#000000;"/>
    <path clip-path="url(#p715e8e15e4)" d="M 198.641204 122.469472 
C 200.516474 122.469472 202.315189 121.72442 203.641204 120.398404 
C 204.96722 119.072389 205.712272 117.273674 205.712272 115.398404 
C 205.712272 113.523135 204.96722 111.72442 203.641204 110.398404 
C 202.315189 109.072389 200.516474 108.327337 198.641204 108.327337 
C 196.765935 108.327337 194.96722 109.072389 193.641204 110.398404 
C 192.315189 111.72442 191.570137 113.523135 191.570137 115.398404 
C 191.570137 117.273674 192.315189 119.072389 193.641204 120.398404 
C 194.96722 121.72442 196.765935 122.469472 198.641204 122.469472 
z
" style="fill:#3182bd;stroke:#000000;"/>
    <path clip-path="url(#p715e8e15e4)" d="M 164.770688 94.096867 
C 167.067414 94.096867 169.270382 93.184368 170.894413 91.560337 
C 172.518443 89.936307 173.430942 87.733339 173.430942 85.436613 
C 173.430942 83.139887 172.518443 80.936919 170.894413 79.312889 
C 169.270382 77.688858 167.067414 76.776359 164.770688 76.776359 
C 162.473962 76.776359 160.270995 77.688858 158.646964 79.312889 
C 157.022933 80.936919 156.110434 83.139887 156.110434 85.436613 
C 156.110434 87.733339 157.022933 89.936307 158.646964 91.560337 
C 160.270995 93.184368 162.473962 94.096867 164.770688 94.096867 
z
" style="fill:#3182bd;stroke:#000000;"/>
    <path clip-path="url(#p715e8e15e4)" d="M 197.420325 105.420617 
C 199.295594 105.420617 201.094309 104.675565 202.420325 103.349549 
C 203.74634 102.023534 204.491392 100.224818 204.491392 98.349549 
C 204.491392 96.47428 203.74634 94.675565 202.420325 93.349549 
C 201.094309 92.023534 199.295594 91.278481 197.420325 91.278481 
C 195.545056 91.278481 193.74634 92.023534 192.420325 93.349549 
C 191.094309 94.675565 190.349257 96.47428 190.349257 98.349549 
C 190.349257 100.224818 191.094309 102.023534 192.420325 103.349549 
C 193.74634 104.675565 195.545056 105.420617 197.420325 105.420617 
z
" style="fill:#3182bd;stroke:#000000;"/>
    <path clip-path="url(#p715e8e15e4)" d="M 171.036425 107.186787 
C 173.235373 107.186787 175.344554 106.313136 176.899445 104.758245 
C 178.454336 103.203354 179.327987 101.094173 179.327987 98.895226 
C 179.327987 96.696278 178.454336 94.587097 176.899445 93.032206 
C 175.344554 91.477315 173.235373 90.603664 171.036425 90.603664 
C 168.837477 90.603664 166.728297 91.477315 165.173406 93.032206 
C 163.618515 94.587097 162.744863 96.696278 162.744863 98.895226 
C 162.744863 101.094173 163.618515 103.203354 165.173406 104.758245 
C 166.728297 106.313136 168.837477 107.186787 171.036425 107.186787 
z
" style="fill:#3182bd;stroke:#000000;"/>
    <path clip-path="url(#p715e8e15e4)" d="M 212.163958 103.392283 
C 214.039227 103.392283 215.837942 102.647231 217.163958 101.321215 
C 218.489973 99.9952 219.235025 98.196484 219.235025 96.321215 
C 219.235025 94.445946 218.489973 92.647231 217.163958 91.321215 
C 215.837942 89.9952 214.039227 89.250147 212.163958 89.250147 
C 210.288689 89.250147 208.489973 89.9952 207.163958 91.321215 
C 205.837942 92.647231 205.09289 94.445946 205.09289 96.321215 
C 205.09289 98.196484 205.837942 99.9952 207.163958 101.321215 
C 208.489973 102.647231 210.288689 103.392283 212.163958 103.392283 
z
" style="fill:#3182bd;stroke:#000000;"/>
   </g>
   <g id="text_1">
    <!-- S -->
    <g style="fill:#ffffff;" transform="translate(197.384884 81.326393)scale(0.1 -0.1)">
     <defs>
      <path d="M 59.90625 70.609375 
L 59.90625 55.171875 
Q 53.90625 57.859375 48.1875 59.21875 
Q 42.484375 60.59375 37.40625 60.59375 
Q 30.671875 60.59375 27.4375 58.734375 
Q 24.21875 56.890625 24.21875 52.984375 
Q 24.21875 50.046875 26.390625 48.40625 
Q 28.5625 46.78125 34.28125 45.609375 
L 42.28125 44 
Q 54.4375 41.546875 59.5625 36.5625 
Q 64.703125 31.59375 64.703125 22.40625 
Q 64.703125 10.359375 57.546875 4.46875 
Q 50.390625 -1.421875 35.6875 -1.421875 
Q 28.765625 -1.421875 21.78125 -0.09375 
Q 14.796875 1.21875 7.8125 3.8125 
L 7.8125 19.671875 
Q 14.796875 15.96875 21.3125 14.078125 
Q 27.828125 12.203125 33.890625 12.203125 
Q 40.046875 12.203125 43.3125 14.25 
Q 46.578125 16.3125 46.578125 20.125 
Q 46.578125 23.53125 44.359375 25.390625 
Q 42.140625 27.25 35.5 28.71875 
L 28.21875 30.328125 
Q 17.28125 32.671875 12.21875 37.796875 
Q 7.171875 42.921875 7.171875 51.609375 
Q 7.171875 62.5 14.203125 68.359375 
Q 21.234375 74.21875 34.421875 74.21875 
Q 40.4375 74.21875 46.78125 73.3125 
Q 53.125 72.40625 59.90625 70.609375 
z
" id="DejaVuSans-Bold-83"/>
     </defs>
     <use xlink:href="#DejaVuSans-Bold-83"/>
    </g>
   </g>
   <g id="text_2">
    <!-- S -->
    <g style="fill:#ffffff;" transform="translate(195.040423 118.157779)scale(0.1 -0.1)">
     <use xlink:href="#DejaVuSans-Bold-83"/>
    </g>
   </g>
   <g id="text_3">
    <!-- S -->
    <g style="fill:#ffffff;" transform="translate(161.169907 88.195988)scale(0.1 -0.1)">
     <use xlink:href="#DejaVuSans-Bold-83"/>
    </g>
   </g>
   <g id="text_4">
    <!-- S -->
    <g style="fill:#ffffff;" transform="translate(193.819543 101.108924)scale(0.1 -0.1)">
     <use xlink:href="#DejaVuSans-Bold-83"/>
    </g>
   </g>
   <g id="text_5">
    <!-- S -->
    <g style="fill:#ffffff;" transform="translate(167.435644 101.654601)scale(0.1 -0.1)">
     <use xlink:href="#DejaVuSans-Bold-83"/>
    </g>
   </g>
   <g id="text_6">
    <!-- S -->
    <g style="fill:#ffffff;" transform="translate(208.563176 99.08059)scale(0.1 -0.1)">
     <use xlink:href="#DejaVuSans-Bold-83"/>
    </g>
   </g>
  </g>
  <g id="axes_2">
   <g id="patch_2">
    <path clip-path="url(#p9708910401)" d="M 489.6 288 
L 489.6 273.6 
L 489.6 14.4 
L 489.6 0 
L 504 0 
L 504 14.4 
L 504 273.6 
L 504 288 
z
" style="fill:#ffffff;stroke:#ffffff;stroke-linejoin:miter;stroke-width:0.01;"/>
   </g>
   <g id="QuadMesh_1">
    <path clip-path="url(#p9708910401)" d="M 489.6 288 
L 504 288 
L 504 273.6 
L 489.6 273.6 
L 489.6 288 
" style="fill:#3182bd;"/>
    <path clip-path="url(#p9708910401)" d="M 489.6 273.6 
L 504 273.6 
L 504 259.2 
L 489.6 259.2 
L 489.6 273.6 
" style="fill:#6baed6;"/>
    <path clip-path="url(#p9708910401)" d="M 489.6 259.2 
L 504 259.2 
L 504 244.8 
L 489.6 244.8 
L 489.6 259.2 
" style="fill:#9ecae1;"/>
    <path clip-path="url(#p9708910401)" d="M 489.6 244.8 
L 504 244.8 
L 504 230.4 
L 489.6 230.4 
L 489.6 244.8 
" style="fill:#c6dbef;"/>
    <path clip-path="url(#p9708910401)" d="M 489.6 230.4 
L 504 230.4 
L 504 216 
L 489.6 216 
L 489.6 230.4 
" style="fill:#e6550d;"/>
    <path clip-path="url(#p9708910401)" d="M 489.6 216 
L 504 216 
L 504 201.6 
L 489.6 201.6 
L 489.6 216 
" style="fill:#fd8d3c;"/>
    <path clip-path="url(#p9708910401)" d="M 489.6 201.6 
L 504 201.6 
L 504 187.2 
L 489.6 187.2 
L 489.6 201.6 
" style="fill:#fdae6b;"/>
    <path clip-path="url(#p9708910401)" d="M 489.6 187.2 
L 504 187.2 
L 504 172.8 
L 489.6 172.8 
L 489.6 187.2 
" style="fill:#fdd0a2;"/>
    <path clip-path="url(#p9708910401)" d="M 489.6 172.8 
L 504 172.8 
L 504 158.4 
L 489.6 158.4 
L 489.6 172.8 
" style="fill:#31a354;"/>
    <path clip-path="url(#p9708910401)" d="M 489.6 158.4 
L 504 158.4 
L 504 144 
L 489.6 144 
L 489.6 158.4 
" style="fill:#74c476;"/>
    <path clip-path="url(#p9708910401)" d="M 489.6 144 
L 504 144 
L 504 129.6 
L 489.6 129.6 
L 489.6 144 
" style="fill:#a1d99b;"/>
    <path clip-path="url(#p9708910401)" d="M 489.6 129.6 
L 504 129.6 
L 504 115.2 
L 489.6 115.2 
L 489.6 129.6 
" style="fill:#c7e9c0;"/>
    <path clip-path="url(#p9708910401)" d="M 489.6 115.2 
L 504 115.2 
L 504 100.8 
L 489.6 100.8 
L 489.6 115.2 
" style="fill:#756bb1;"/>
    <path clip-path="url(#p9708910401)" d="M 489.6 100.8 
L 504 100.8 
L 504 86.4 
L 489.6 86.4 
L 489.6 100.8 
" style="fill:#9e9ac8;"/>
    <path clip-path="url(#p9708910401)" d="M 489.6 86.4 
L 504 86.4 
L 504 72 
L 489.6 72 
L 489.6 86.4 
" style="fill:#bcbddc;"/>
    <path clip-path="url(#p9708910401)" d="M 489.6 72 
L 504 72 
L 504 57.6 
L 489.6 57.6 
L 489.6 72 
" style="fill:#dadaeb;"/>
    <path clip-path="url(#p9708910401)" d="M 489.6 57.6 
L 504 57.6 
L 504 43.2 
L 489.6 43.2 
L 489.6 57.6 
" style="fill:#636363;"/>
    <path clip-path="url(#p9708910401)" d="M 489.6 43.2 
L 504 43.2 
L 504 28.8 
L 489.6 28.8 
L 489.6 43.2 
" style="fill:#969696;"/>
    <path clip-path="url(#p9708910401)" d="M 489.6 28.8 
L 504 28.8 
L 504 14.4 
L 489.6 14.4 
L 489.6 28.8 
" style="fill:#bdbdbd;"/>
    <path clip-path="url(#p9708910401)" d="M 489.6 14.4 
L 504 14.4 
L 504 0 
L 489.6 0 
L 489.6 14.4 
" style="fill:#d9d9d9;"/>
   </g>
   <g id="matplotlib.axis_1"/>
   <g id="matplotlib.axis_2">
    <g id="ytick_1">
     <g id="line2d_1">
      <defs>
       <path d="M 0 0 
L 3.5 0 
" id="mb929063324" style="stroke:#000000;stroke-width:0.8;"/>
      </defs>
      <g>
       <use style="stroke:#000000;stroke-width:0.8;" x="504" xlink:href="#mb929063324" y="288"/>
      </g>
     </g>
     <g id="text_7">
      <!-- 0.0 -->
      <g transform="translate(511 291.799219)scale(0.1 -0.1)">
       <defs>
        <path d="M 31.78125 66.40625 
Q 24.171875 66.40625 20.328125 58.90625 
Q 16.5 51.421875 16.5 36.375 
Q 16.5 21.390625 20.328125 13.890625 
Q 24.171875 6.390625 31.78125 6.390625 
Q 39.453125 6.390625 43.28125 13.890625 
Q 47.125 21.390625 47.125 36.375 
Q 47.125 51.421875 43.28125 58.90625 
Q 39.453125 66.40625 31.78125 66.40625 
z
M 31.78125 74.21875 
Q 44.046875 74.21875 50.515625 64.515625 
Q 56.984375 54.828125 56.984375 36.375 
Q 56.984375 17.96875 50.515625 8.265625 
Q 44.046875 -1.421875 31.78125 -1.421875 
Q 19.53125 -1.421875 13.0625 8.265625 
Q 6.59375 17.96875 6.59375 36.375 
Q 6.59375 54.828125 13.0625 64.515625 
Q 19.53125 74.21875 31.78125 74.21875 
z
" id="DejaVuSans-48"/>
        <path d="M 10.6875 12.40625 
L 21 12.40625 
L 21 0 
L 10.6875 0 
z
" id="DejaVuSans-46"/>
       </defs>
       <use xlink:href="#DejaVuSans-48"/>
       <use x="63.623047" xlink:href="#DejaVuSans-46"/>
       <use x="95.410156" xlink:href="#DejaVuSans-48"/>
      </g>
     </g>
    </g>
    <g id="ytick_2">
     <g id="line2d_2">
      <g>
       <use style="stroke:#000000;stroke-width:0.8;" x="504" xlink:href="#mb929063324" y="230.4"/>
      </g>
     </g>
     <g id="text_8">
      <!-- 0.5 -->
      <g transform="translate(511 234.199219)scale(0.1 -0.1)">
       <defs>
        <path d="M 10.796875 72.90625 
L 49.515625 72.90625 
L 49.515625 64.59375 
L 19.828125 64.59375 
L 19.828125 46.734375 
Q 21.96875 47.46875 24.109375 47.828125 
Q 26.265625 48.1875 28.421875 48.1875 
Q 40.625 48.1875 47.75 41.5 
Q 54.890625 34.8125 54.890625 23.390625 
Q 54.890625 11.625 47.5625 5.09375 
Q 40.234375 -1.421875 26.90625 -1.421875 
Q 22.3125 -1.421875 17.546875 -0.640625 
Q 12.796875 0.140625 7.71875 1.703125 
L 7.71875 11.625 
Q 12.109375 9.234375 16.796875 8.0625 
Q 21.484375 6.890625 26.703125 6.890625 
Q 35.15625 6.890625 40.078125 11.328125 
Q 45.015625 15.765625 45.015625 23.390625 
Q 45.015625 31 40.078125 35.4375 
Q 35.15625 39.890625 26.703125 39.890625 
Q 22.75 39.890625 18.8125 39.015625 
Q 14.890625 38.140625 10.796875 36.28125 
z
" id="DejaVuSans-53"/>
       </defs>
       <use xlink:href="#DejaVuSans-48"/>
       <use x="63.623047" xlink:href="#DejaVuSans-46"/>
       <use x="95.410156" xlink:href="#DejaVuSans-53"/>
      </g>
     </g>
    </g>
    <g id="ytick_3">
     <g id="line2d_3">
      <g>
       <use style="stroke:#000000;stroke-width:0.8;" x="504" xlink:href="#mb929063324" y="172.8"/>
      </g>
     </g>
     <g id="text_9">
      <!-- 1.0 -->
      <g transform="translate(511 176.599219)scale(0.1 -0.1)">
       <defs>
        <path d="M 12.40625 8.296875 
L 28.515625 8.296875 
L 28.515625 63.921875 
L 10.984375 60.40625 
L 10.984375 69.390625 
L 28.421875 72.90625 
L 38.28125 72.90625 
L 38.28125 8.296875 
L 54.390625 8.296875 
L 54.390625 0 
L 12.40625 0 
z
" id="DejaVuSans-49"/>
       </defs>
       <use xlink:href="#DejaVuSans-49"/>
       <use x="63.623047" xlink:href="#DejaVuSans-46"/>
       <use x="95.410156" xlink:href="#DejaVuSans-48"/>
      </g>
     </g>
    </g>
    <g id="ytick_4">
     <g id="line2d_4">
      <g>
       <use style="stroke:#000000;stroke-width:0.8;" x="504" xlink:href="#mb929063324" y="115.2"/>
      </g>
     </g>
     <g id="text_10">
      <!-- 1.5 -->
      <g transform="translate(511 118.999219)scale(0.1 -0.1)">
       <use xlink:href="#DejaVuSans-49"/>
       <use x="63.623047" xlink:href="#DejaVuSans-46"/>
       <use x="95.410156" xlink:href="#DejaVuSans-53"/>
      </g>
     </g>
    </g>
    <g id="ytick_5">
     <g id="line2d_5">
      <g>
       <use style="stroke:#000000;stroke-width:0.8;" x="504" xlink:href="#mb929063324" y="57.6"/>
      </g>
     </g>
     <g id="text_11">
      <!-- 2.0 -->
      <g transform="translate(511 61.399219)scale(0.1 -0.1)">
       <defs>
        <path d="M 19.1875 8.296875 
L 53.609375 8.296875 
L 53.609375 0 
L 7.328125 0 
L 7.328125 8.296875 
Q 12.9375 14.109375 22.625 23.890625 
Q 32.328125 33.6875 34.8125 36.53125 
Q 39.546875 41.84375 41.421875 45.53125 
Q 43.3125 49.21875 43.3125 52.78125 
Q 43.3125 58.59375 39.234375 62.25 
Q 35.15625 65.921875 28.609375 65.921875 
Q 23.96875 65.921875 18.8125 64.3125 
Q 13.671875 62.703125 7.8125 59.421875 
L 7.8125 69.390625 
Q 13.765625 71.78125 18.9375 73 
Q 24.125 74.21875 28.421875 74.21875 
Q 39.75 74.21875 46.484375 68.546875 
Q 53.21875 62.890625 53.21875 53.421875 
Q 53.21875 48.921875 51.53125 44.890625 
Q 49.859375 40.875 45.40625 35.40625 
Q 44.1875 33.984375 37.640625 27.21875 
Q 31.109375 20.453125 19.1875 8.296875 
z
" id="DejaVuSans-50"/>
       </defs>
       <use xlink:href="#DejaVuSans-50"/>
       <use x="63.623047" xlink:href="#DejaVuSans-46"/>
       <use x="95.410156" xlink:href="#DejaVuSans-48"/>
      </g>
     </g>
    </g>
    <g id="ytick_6">
     <g id="line2d_6">
      <g>
       <use style="stroke:#000000;stroke-width:0.8;" x="504" xlink:href="#mb929063324" y="0"/>
      </g>
     </g>
     <g id="text_12">
      <!-- 2.5 -->
      <g transform="translate(511 3.799219)scale(0.1 -0.1)">
       <use xlink:href="#DejaVuSans-50"/>
       <use x="63.623047" xlink:href="#DejaVuSans-46"/>
       <use x="95.410156" xlink:href="#DejaVuSans-53"/>
      </g>
     </g>
    </g>
    <g id="text_13">
     <!-- Distance to Nearest Sink -->
     <g transform="translate(538.501563 205.742188)rotate(-90)scale(0.1 -0.1)">
      <defs>
       <path d="M 19.671875 64.796875 
L 19.671875 8.109375 
L 31.59375 8.109375 
Q 46.6875 8.109375 53.6875 14.9375 
Q 60.6875 21.78125 60.6875 36.53125 
Q 60.6875 51.171875 53.6875 57.984375 
Q 46.6875 64.796875 31.59375 64.796875 
z
M 9.8125 72.90625 
L 30.078125 72.90625 
Q 51.265625 72.90625 61.171875 64.09375 
Q 71.09375 55.28125 71.09375 36.53125 
Q 71.09375 17.671875 61.125 8.828125 
Q 51.171875 0 30.078125 0 
L 9.8125 0 
z
" id="DejaVuSans-68"/>
       <path d="M 9.421875 54.6875 
L 18.40625 54.6875 
L 18.40625 0 
L 9.421875 0 
z
M 9.421875 75.984375 
L 18.40625 75.984375 
L 18.40625 64.59375 
L 9.421875 64.59375 
z
" id="DejaVuSans-105"/>
       <path d="M 44.28125 53.078125 
L 44.28125 44.578125 
Q 40.484375 46.53125 36.375 47.5 
Q 32.28125 48.484375 27.875 48.484375 
Q 21.1875 48.484375 17.84375 46.4375 
Q 14.5 44.390625 14.5 40.28125 
Q 14.5 37.15625 16.890625 35.375 
Q 19.28125 33.59375 26.515625 31.984375 
L 29.59375 31.296875 
Q 39.15625 29.25 43.1875 25.515625 
Q 47.21875 21.78125 47.21875 15.09375 
Q 47.21875 7.46875 41.1875 3.015625 
Q 35.15625 -1.421875 24.609375 -1.421875 
Q 20.21875 -1.421875 15.453125 -0.5625 
Q 10.6875 0.296875 5.421875 2 
L 5.421875 11.28125 
Q 10.40625 8.6875 15.234375 7.390625 
Q 20.0625 6.109375 24.8125 6.109375 
Q 31.15625 6.109375 34.5625 8.28125 
Q 37.984375 10.453125 37.984375 14.40625 
Q 37.984375 18.0625 35.515625 20.015625 
Q 33.0625 21.96875 24.703125 23.78125 
L 21.578125 24.515625 
Q 13.234375 26.265625 9.515625 29.90625 
Q 5.8125 33.546875 5.8125 39.890625 
Q 5.8125 47.609375 11.28125 51.796875 
Q 16.75 56 26.8125 56 
Q 31.78125 56 36.171875 55.265625 
Q 40.578125 54.546875 44.28125 53.078125 
z
" id="DejaVuSans-115"/>
       <path d="M 18.3125 70.21875 
L 18.3125 54.6875 
L 36.8125 54.6875 
L 36.8125 47.703125 
L 18.3125 47.703125 
L 18.3125 18.015625 
Q 18.3125 11.328125 20.140625 9.421875 
Q 21.96875 7.515625 27.59375 7.515625 
L 36.8125 7.515625 
L 36.8125 0 
L 27.59375 0 
Q 17.1875 0 13.234375 3.875 
Q 9.28125 7.765625 9.28125 18.015625 
L 9.28125 47.703125 
L 2.6875 47.703125 
L 2.6875 54.6875 
L 9.28125 54.6875 
L 9.28125 70.21875 
z
" id="DejaVuSans-116"/>
       <path d="M 34.28125 27.484375 
Q 23.390625 27.484375 19.1875 25 
Q 14.984375 22.515625 14.984375 16.5 
Q 14.984375 11.71875 18.140625 8.90625 
Q 21.296875 6.109375 26.703125 6.109375 
Q 34.1875 6.109375 38.703125 11.40625 
Q 43.21875 16.703125 43.21875 25.484375 
L 43.21875 27.484375 
z
M 52.203125 31.203125 
L 52.203125 0 
L 43.21875 0 
L 43.21875 8.296875 
Q 40.140625 3.328125 35.546875 0.953125 
Q 30.953125 -1.421875 24.3125 -1.421875 
Q 15.921875 -1.421875 10.953125 3.296875 
Q 6 8.015625 6 15.921875 
Q 6 25.140625 12.171875 29.828125 
Q 18.359375 34.515625 30.609375 34.515625 
L 43.21875 34.515625 
L 43.21875 35.40625 
Q 43.21875 41.609375 39.140625 45 
Q 35.0625 48.390625 27.6875 48.390625 
Q 23 48.390625 18.546875 47.265625 
Q 14.109375 46.140625 10.015625 43.890625 
L 10.015625 52.203125 
Q 14.9375 54.109375 19.578125 55.046875 
Q 24.21875 56 28.609375 56 
Q 40.484375 56 46.34375 49.84375 
Q 52.203125 43.703125 52.203125 31.203125 
z
" id="DejaVuSans-97"/>
       <path d="M 54.890625 33.015625 
L 54.890625 0 
L 45.90625 0 
L 45.90625 32.71875 
Q 45.90625 40.484375 42.875 44.328125 
Q 39.84375 48.1875 33.796875 48.1875 
Q 26.515625 48.1875 22.3125 43.546875 
Q 18.109375 38.921875 18.109375 30.90625 
L 18.109375 0 
L 9.078125 0 
L 9.078125 54.6875 
L 18.109375 54.6875 
L 18.109375 46.1875 
Q 21.34375 51.125 25.703125 53.5625 
Q 30.078125 56 35.796875 56 
Q 45.21875 56 50.046875 50.171875 
Q 54.890625 44.34375 54.890625 33.015625 
z
" id="DejaVuSans-110"/>
       <path d="M 48.78125 52.59375 
L 48.78125 44.1875 
Q 44.96875 46.296875 41.140625 47.34375 
Q 37.3125 48.390625 33.40625 48.390625 
Q 24.65625 48.390625 19.8125 42.84375 
Q 14.984375 37.3125 14.984375 27.296875 
Q 14.984375 17.28125 19.8125 11.734375 
Q 24.65625 6.203125 33.40625 6.203125 
Q 37.3125 6.203125 41.140625 7.25 
Q 44.96875 8.296875 48.78125 10.40625 
L 48.78125 2.09375 
Q 45.015625 0.34375 40.984375 -0.53125 
Q 36.96875 -1.421875 32.421875 -1.421875 
Q 20.0625 -1.421875 12.78125 6.34375 
Q 5.515625 14.109375 5.515625 27.296875 
Q 5.515625 40.671875 12.859375 48.328125 
Q 20.21875 56 33.015625 56 
Q 37.15625 56 41.109375 55.140625 
Q 45.0625 54.296875 48.78125 52.59375 
z
" id="DejaVuSans-99"/>
       <path d="M 56.203125 29.59375 
L 56.203125 25.203125 
L 14.890625 25.203125 
Q 15.484375 15.921875 20.484375 11.0625 
Q 25.484375 6.203125 34.421875 6.203125 
Q 39.59375 6.203125 44.453125 7.46875 
Q 49.3125 8.734375 54.109375 11.28125 
L 54.109375 2.78125 
Q 49.265625 0.734375 44.1875 -0.34375 
Q 39.109375 -1.421875 33.890625 -1.421875 
Q 20.796875 -1.421875 13.15625 6.1875 
Q 5.515625 13.8125 5.515625 26.8125 
Q 5.515625 40.234375 12.765625 48.109375 
Q 20.015625 56 32.328125 56 
Q 43.359375 56 49.78125 48.890625 
Q 56.203125 41.796875 56.203125 29.59375 
z
M 47.21875 32.234375 
Q 47.125 39.59375 43.09375 43.984375 
Q 39.0625 48.390625 32.421875 48.390625 
Q 24.90625 48.390625 20.390625 44.140625 
Q 15.875 39.890625 15.1875 32.171875 
z
" id="DejaVuSans-101"/>
       <path id="DejaVuSans-32"/>
       <path d="M 30.609375 48.390625 
Q 23.390625 48.390625 19.1875 42.75 
Q 14.984375 37.109375 14.984375 27.296875 
Q 14.984375 17.484375 19.15625 11.84375 
Q 23.34375 6.203125 30.609375 6.203125 
Q 37.796875 6.203125 41.984375 11.859375 
Q 46.1875 17.53125 46.1875 27.296875 
Q 46.1875 37.015625 41.984375 42.703125 
Q 37.796875 48.390625 30.609375 48.390625 
z
M 30.609375 56 
Q 42.328125 56 49.015625 48.375 
Q 55.71875 40.765625 55.71875 27.296875 
Q 55.71875 13.875 49.015625 6.21875 
Q 42.328125 -1.421875 30.609375 -1.421875 
Q 18.84375 -1.421875 12.171875 6.21875 
Q 5.515625 13.875 5.515625 27.296875 
Q 5.515625 40.765625 12.171875 48.375 
Q 18.84375 56 30.609375 56 
z
" id="DejaVuSans-111"/>
       <path d="M 9.8125 72.90625 
L 23.09375 72.90625 
L 55.421875 11.921875 
L 55.421875 72.90625 
L 64.984375 72.90625 
L 64.984375 0 
L 51.703125 0 
L 19.390625 60.984375 
L 19.390625 0 
L 9.8125 0 
z
" id="DejaVuSans-78"/>
       <path d="M 41.109375 46.296875 
Q 39.59375 47.171875 37.8125 47.578125 
Q 36.03125 48 33.890625 48 
Q 26.265625 48 22.1875 43.046875 
Q 18.109375 38.09375 18.109375 28.8125 
L 18.109375 0 
L 9.078125 0 
L 9.078125 54.6875 
L 18.109375 54.6875 
L 18.109375 46.1875 
Q 20.953125 51.171875 25.484375 53.578125 
Q 30.03125 56 36.53125 56 
Q 37.453125 56 38.578125 55.875 
Q 39.703125 55.765625 41.0625 55.515625 
z
" id="DejaVuSans-114"/>
       <path d="M 53.515625 70.515625 
L 53.515625 60.890625 
Q 47.90625 63.578125 42.921875 64.890625 
Q 37.9375 66.21875 33.296875 66.21875 
Q 25.25 66.21875 20.875 63.09375 
Q 16.5 59.96875 16.5 54.203125 
Q 16.5 49.359375 19.40625 46.890625 
Q 22.3125 44.4375 30.421875 42.921875 
L 36.375 41.703125 
Q 47.40625 39.59375 52.65625 34.296875 
Q 57.90625 29 57.90625 20.125 
Q 57.90625 9.515625 50.796875 4.046875 
Q 43.703125 -1.421875 29.984375 -1.421875 
Q 24.8125 -1.421875 18.96875 -0.25 
Q 13.140625 0.921875 6.890625 3.21875 
L 6.890625 13.375 
Q 12.890625 10.015625 18.65625 8.296875 
Q 24.421875 6.59375 29.984375 6.59375 
Q 38.421875 6.59375 43.015625 9.90625 
Q 47.609375 13.234375 47.609375 19.390625 
Q 47.609375 24.75 44.3125 27.78125 
Q 41.015625 30.8125 33.5 32.328125 
L 27.484375 33.5 
Q 16.453125 35.6875 11.515625 40.375 
Q 6.59375 45.0625 6.59375 53.421875 
Q 6.59375 63.09375 13.40625 68.65625 
Q 20.21875 74.21875 32.171875 74.21875 
Q 37.3125 74.21875 42.625 73.28125 
Q 47.953125 72.359375 53.515625 70.515625 
z
" id="DejaVuSans-83"/>
       <path d="M 9.078125 75.984375 
L 18.109375 75.984375 
L 18.109375 31.109375 
L 44.921875 54.6875 
L 56.390625 54.6875 
L 27.390625 29.109375 
L 57.625 0 
L 45.90625 0 
L 18.109375 26.703125 
L 18.109375 0 
L 9.078125 0 
z
" id="DejaVuSans-107"/>
      </defs>
      <use xlink:href="#DejaVuSans-68"/>
      <use x="77.001953" xlink:href="#DejaVuSans-105"/>
      <use x="104.785156" xlink:href="#DejaVuSans-115"/>
      <use x="156.884766" xlink:href="#DejaVuSans-116"/>
      <use x="196.09375" xlink:href="#DejaVuSans-97"/>
      <use x="257.373047" xlink:href="#DejaVuSans-110"/>
      <use x="320.751953" xlink:href="#DejaVuSans-99"/>
      <use x="375.732422" xlink:href="#DejaVuSans-101"/>
      <use x="437.255859" xlink:href="#DejaVuSans-32"/>
      <use x="469.042969" xlink:href="#DejaVuSans-116"/>
      <use x="508.251953" xlink:href="#DejaVuSans-111"/>
      <use x="569.433594" xlink:href="#DejaVuSans-32"/>
      <use x="601.220703" xlink:href="#DejaVuSans-78"/>
      <use x="676.025391" xlink:href="#DejaVuSans-101"/>
      <use x="737.548828" xlink:href="#DejaVuSans-97"/>
      <use x="798.828125" xlink:href="#DejaVuSans-114"/>
      <use x="837.691406" xlink:href="#DejaVuSans-101"/>
      <use x="899.214844" xlink:href="#DejaVuSans-115"/>
      <use x="951.314453" xlink:href="#DejaVuSans-116"/>
      <use x="990.523438" xlink:href="#DejaVuSans-32"/>
      <use x="1022.310547" xlink:href="#DejaVuSans-83"/>
      <use x="1085.787109" xlink:href="#DejaVuSans-105"/>
      <use x="1113.570312" xlink:href="#DejaVuSans-110"/>
      <use x="1176.949219" xlink:href="#DejaVuSans-107"/>
     </g>
    </g>
   </g>
   <g id="patch_3">
    <path d="M 489.6 288 
L 489.6 273.6 
L 489.6 14.4 
L 489.6 0 
L 504 0 
L 504 14.4 
L 504 273.6 
L 504 288 
z
" style="fill:none;stroke:#000000;stroke-linejoin:miter;stroke-width:0.8;"/>
   </g>
  </g>
 </g>
 <defs>
  <clipPath id="p715e8e15e4">
   <rect height="288" width="460.8" x="0" y="0"/>
  </clipPath>
  <clipPath id="p9708910401">
   <rect height="288" width="14.4" x="489.6" y="0"/>
  </clipPath>
 </defs>
</svg>
