<?xml version="1.0" encoding="utf-8" standalone="no"?>
<!DOCTYPE svg PUBLIC "-//W3C//DTD SVG 1.1//EN"
  "http://www.w3.org/Graphics/SVG/1.1/DTD/svg11.dtd">
<!-- Created with matplotlib (https://matplotlib.org/) -->
<svg height="288pt" version="1.1" viewBox="0 0 576 288" width="576pt" xmlns="http://www.w3.org/2000/svg" xmlns:xlink="http://www.w3.org/1999/xlink">
 <metadata>
  <rdf:RDF xmlns:cc="http://creativecommons.org/ns#" xmlns:dc="http://purl.org/dc/elements/1.1/" xmlns:rdf="http://www.w3.org/1999/02/22-rdf-syntax-ns#">
   <cc:Work>
    <dc:type rdf:resource="http://purl.org/dc/dcmitype/StillImage"/>
    <dc:date>2023-12-28T11:56:23.767779</dc:date>
    <dc:format>image/svg+xml</dc:format>
    <dc:creator>
     <cc:Agent>
      <dc:title>Matplotlib v3.3.4, https://matplotlib.org/</dc:title>
     </cc:Agent>
    </dc:creator>
   </cc:Work>
  </rdf:RDF>
 </metadata>
 <defs>
  <style type="text/css">*{stroke-linecap:butt;stroke-linejoin:round;}</style>
 </defs>
 <g id="figure_1">
  <g id="patch_1">
   <path d="M 0 288 
L 576 288 
L 576 0 
L 0 0 
z
" style="fill:#ffffff;"/>
  </g>
  <g id="axes_1">
   <g id="LineCollection_1">
    <path clip-path="url(#pfbc3837dac)" d="M 200.985665 78.567018 
L 212.163958 96.321215 
" style="fill:none;stroke:#000000;stroke-width:0.5;"/>
    <path clip-path="url(#pfbc3837dac)" d="M 200.985665 78.567018 
L 250.048739 129.394739 
" style="fill:none;stroke:#000000;stroke-width:0.5;"/>
    <path clip-path="url(#pfbc3837dac)" d="M 200.985665 78.567018 
L 197.420325 98.349549 
" style="fill:none;stroke:#000000;stroke-width:0.5;"/>
    <path clip-path="url(#pfbc3837dac)" d="M 200.985665 78.567018 
L 164.770688 85.436613 
" style="fill:none;stroke:#000000;stroke-width:0.5;"/>
    <path clip-path="url(#pfbc3837dac)" d="M 200.985665 78.567018 
L 234.992769 126.547106 
" style="fill:none;stroke:#000000;stroke-width:0.5;"/>
    <path clip-path="url(#pfbc3837dac)" d="M 200.985665 78.567018 
L 171.036425 98.895226 
" style="fill:none;stroke:#000000;stroke-width:0.5;"/>
    <path clip-path="url(#pfbc3837dac)" d="M 200.985665 78.567018 
L 198.641204 115.398404 
" style="fill:none;stroke:#000000;stroke-width:0.5;"/>
    <path clip-path="url(#pfbc3837dac)" d="M 200.985665 78.567018 
L 216.252207 75.588362 
" style="fill:none;stroke:#000000;stroke-width:0.5;"/>
    <path clip-path="url(#pfbc3837dac)" d="M 234.992769 126.547106 
L 212.163958 96.321215 
" style="fill:none;stroke:#000000;stroke-width:0.5;"/>
    <path clip-path="url(#pfbc3837dac)" d="M 234.992769 126.547106 
L 261.991967 65.806352 
" style="fill:none;stroke:#000000;stroke-width:0.5;"/>
    <path clip-path="url(#pfbc3837dac)" d="M 234.992769 126.547106 
L 250.048739 129.394739 
" style="fill:none;stroke:#000000;stroke-width:0.5;"/>
    <path clip-path="url(#pfbc3837dac)" d="M 234.992769 126.547106 
L 290.452166 173.77638 
" style="fill:none;stroke:#000000;stroke-width:0.5;"/>
    <path clip-path="url(#pfbc3837dac)" d="M 234.992769 126.547106 
L 197.420325 98.349549 
" style="fill:none;stroke:#000000;stroke-width:0.5;"/>
    <path clip-path="url(#pfbc3837dac)" d="M 234.992769 126.547106 
L 164.770688 85.436613 
" style="fill:none;stroke:#000000;stroke-width:0.5;"/>
    <path clip-path="url(#pfbc3837dac)" d="M 234.992769 126.547106 
L 277.014936 183.437948 
" style="fill:none;stroke:#000000;stroke-width:0.5;"/>
    <path clip-path="url(#pfbc3837dac)" d="M 234.992769 126.547106 
L 302.581351 147.234644 
" style="fill:none;stroke:#000000;stroke-width:0.5;"/>
    <path clip-path="url(#pfbc3837dac)" d="M 234.992769 126.547106 
L 171.036425 98.895226 
" style="fill:none;stroke:#000000;stroke-width:0.5;"/>
    <path clip-path="url(#pfbc3837dac)" d="M 234.992769 126.547106 
L 198.641204 115.398404 
" style="fill:none;stroke:#000000;stroke-width:0.5;"/>
    <path clip-path="url(#pfbc3837dac)" d="M 234.992769 126.547106 
L 284.858129 132.866967 
" style="fill:none;stroke:#000000;stroke-width:0.5;"/>
    <path clip-path="url(#pfbc3837dac)" d="M 234.992769 126.547106 
L 250.829915 195.672396 
" style="fill:none;stroke:#000000;stroke-width:0.5;"/>
    <path clip-path="url(#pfbc3837dac)" d="M 234.992769 126.547106 
L 216.252207 75.588362 
" style="fill:none;stroke:#000000;stroke-width:0.5;"/>
    <path clip-path="url(#pfbc3837dac)" d="M 234.992769 126.547106 
L 240.928644 180.813269 
" style="fill:none;stroke:#000000;stroke-width:0.5;"/>
    <path clip-path="url(#pfbc3837dac)" d="M 234.992769 126.547106 
L 300.437602 127.905159 
" style="fill:none;stroke:#000000;stroke-width:0.5;"/>
    <path clip-path="url(#pfbc3837dac)" d="M 234.992769 126.547106 
L 333.238215 187.303744 
" style="fill:none;stroke:#000000;stroke-width:0.5;"/>
    <path clip-path="url(#pfbc3837dac)" d="M 234.992769 126.547106 
L 284.778086 152.939795 
" style="fill:none;stroke:#000000;stroke-width:0.5;"/>
    <path clip-path="url(#pfbc3837dac)" d="M 41.709509 44.45425 
L 113.716109 69.219755 
" style="fill:none;stroke:#000000;stroke-width:0.5;"/>
    <path clip-path="url(#pfbc3837dac)" d="M 41.709509 44.45425 
L 117.646832 82.561448 
" style="fill:none;stroke:#000000;stroke-width:0.5;"/>
    <path clip-path="url(#pfbc3837dac)" d="M 41.709509 44.45425 
L 39.986777 73.819028 
" style="fill:none;stroke:#000000;stroke-width:0.5;"/>
    <path clip-path="url(#pfbc3837dac)" d="M 41.709509 44.45425 
L 122.845955 57.827894 
" style="fill:none;stroke:#000000;stroke-width:0.5;"/>
    <path clip-path="url(#pfbc3837dac)" d="M 41.709509 44.45425 
L 64.70191 24.991736 
" style="fill:none;stroke:#000000;stroke-width:0.5;"/>
    <path clip-path="url(#pfbc3837dac)" d="M 41.709509 44.45425 
L 61.742263 53.409482 
" style="fill:none;stroke:#000000;stroke-width:0.5;"/>
    <path clip-path="url(#pfbc3837dac)" d="M 41.709509 44.45425 
L 52.084098 93.456549 
" style="fill:none;stroke:#000000;stroke-width:0.5;"/>
    <path clip-path="url(#pfbc3837dac)" d="M 41.709509 44.45425 
L 111.717285 96.648758 
" style="fill:none;stroke:#000000;stroke-width:0.5;"/>
    <path clip-path="url(#pfbc3837dac)" d="M 402.224844 261.488846 
L 384.894759 241.093634 
" style="fill:none;stroke:#000000;stroke-width:0.5;"/>
    <path clip-path="url(#pfbc3837dac)" d="M 402.224844 261.488846 
L 404.649374 216.831755 
" style="fill:none;stroke:#000000;stroke-width:0.5;"/>
    <path clip-path="url(#pfbc3837dac)" d="M 402.224844 261.488846 
L 377.122747 263.008264 
" style="fill:none;stroke:#000000;stroke-width:0.5;"/>
    <path clip-path="url(#pfbc3837dac)" d="M 402.224844 261.488846 
L 412.718695 197.688714 
" style="fill:none;stroke:#000000;stroke-width:0.5;"/>
    <path clip-path="url(#pfbc3837dac)" d="M 402.224844 261.488846 
L 420.813223 242.958875 
" style="fill:none;stroke:#000000;stroke-width:0.5;"/>
    <path clip-path="url(#pfbc3837dac)" d="M 402.224844 261.488846 
L 333.238215 187.303744 
" style="fill:none;stroke:#000000;stroke-width:0.5;"/>
    <path clip-path="url(#pfbc3837dac)" d="M 117.646832 82.561448 
L 113.716109 69.219755 
" style="fill:none;stroke:#000000;stroke-width:0.5;"/>
    <path clip-path="url(#pfbc3837dac)" d="M 117.646832 82.561448 
L 39.986777 73.819028 
" style="fill:none;stroke:#000000;stroke-width:0.5;"/>
    <path clip-path="url(#pfbc3837dac)" d="M 117.646832 82.561448 
L 122.845955 57.827894 
" style="fill:none;stroke:#000000;stroke-width:0.5;"/>
    <path clip-path="url(#pfbc3837dac)" d="M 117.646832 82.561448 
L 164.770688 85.436613 
" style="fill:none;stroke:#000000;stroke-width:0.5;"/>
    <path clip-path="url(#pfbc3837dac)" d="M 117.646832 82.561448 
L 64.70191 24.991736 
" style="fill:none;stroke:#000000;stroke-width:0.5;"/>
    <path clip-path="url(#pfbc3837dac)" d="M 117.646832 82.561448 
L 61.742263 53.409482 
" style="fill:none;stroke:#000000;stroke-width:0.5;"/>
    <path clip-path="url(#pfbc3837dac)" d="M 117.646832 82.561448 
L 171.036425 98.895226 
" style="fill:none;stroke:#000000;stroke-width:0.5;"/>
    <path clip-path="url(#pfbc3837dac)" d="M 117.646832 82.561448 
L 52.084098 93.456549 
" style="fill:none;stroke:#000000;stroke-width:0.5;"/>
    <path clip-path="url(#pfbc3837dac)" d="M 117.646832 82.561448 
L 111.717285 96.648758 
" style="fill:none;stroke:#000000;stroke-width:0.5;"/>
    <path clip-path="url(#pfbc3837dac)" d="M 198.641204 115.398404 
L 212.163958 96.321215 
" style="fill:none;stroke:#000000;stroke-width:0.5;"/>
    <path clip-path="url(#pfbc3837dac)" d="M 198.641204 115.398404 
L 250.048739 129.394739 
" style="fill:none;stroke:#000000;stroke-width:0.5;"/>
    <path clip-path="url(#pfbc3837dac)" d="M 198.641204 115.398404 
L 197.420325 98.349549 
" style="fill:none;stroke:#000000;stroke-width:0.5;"/>
    <path clip-path="url(#pfbc3837dac)" d="M 198.641204 115.398404 
L 164.770688 85.436613 
" style="fill:none;stroke:#000000;stroke-width:0.5;"/>
    <path clip-path="url(#pfbc3837dac)" d="M 198.641204 115.398404 
L 171.036425 98.895226 
" style="fill:none;stroke:#000000;stroke-width:0.5;"/>
    <path clip-path="url(#pfbc3837dac)" d="M 198.641204 115.398404 
L 216.252207 75.588362 
" style="fill:none;stroke:#000000;stroke-width:0.5;"/>
    <path clip-path="url(#pfbc3837dac)" d="M 61.742263 53.409482 
L 113.716109 69.219755 
" style="fill:none;stroke:#000000;stroke-width:0.5;"/>
    <path clip-path="url(#pfbc3837dac)" d="M 61.742263 53.409482 
L 39.986777 73.819028 
" style="fill:none;stroke:#000000;stroke-width:0.5;"/>
    <path clip-path="url(#pfbc3837dac)" d="M 61.742263 53.409482 
L 122.845955 57.827894 
" style="fill:none;stroke:#000000;stroke-width:0.5;"/>
    <path clip-path="url(#pfbc3837dac)" d="M 61.742263 53.409482 
L 64.70191 24.991736 
" style="fill:none;stroke:#000000;stroke-width:0.5;"/>
    <path clip-path="url(#pfbc3837dac)" d="M 61.742263 53.409482 
L 52.084098 93.456549 
" style="fill:none;stroke:#000000;stroke-width:0.5;"/>
    <path clip-path="url(#pfbc3837dac)" d="M 61.742263 53.409482 
L 111.717285 96.648758 
" style="fill:none;stroke:#000000;stroke-width:0.5;"/>
    <path clip-path="url(#pfbc3837dac)" d="M 164.770688 85.436613 
L 113.716109 69.219755 
" style="fill:none;stroke:#000000;stroke-width:0.5;"/>
    <path clip-path="url(#pfbc3837dac)" d="M 164.770688 85.436613 
L 212.163958 96.321215 
" style="fill:none;stroke:#000000;stroke-width:0.5;"/>
    <path clip-path="url(#pfbc3837dac)" d="M 164.770688 85.436613 
L 250.048739 129.394739 
" style="fill:none;stroke:#000000;stroke-width:0.5;"/>
    <path clip-path="url(#pfbc3837dac)" d="M 164.770688 85.436613 
L 122.845955 57.827894 
" style="fill:none;stroke:#000000;stroke-width:0.5;"/>
    <path clip-path="url(#pfbc3837dac)" d="M 164.770688 85.436613 
L 197.420325 98.349549 
" style="fill:none;stroke:#000000;stroke-width:0.5;"/>
    <path clip-path="url(#pfbc3837dac)" d="M 164.770688 85.436613 
L 171.036425 98.895226 
" style="fill:none;stroke:#000000;stroke-width:0.5;"/>
    <path clip-path="url(#pfbc3837dac)" d="M 164.770688 85.436613 
L 111.717285 96.648758 
" style="fill:none;stroke:#000000;stroke-width:0.5;"/>
    <path clip-path="url(#pfbc3837dac)" d="M 164.770688 85.436613 
L 216.252207 75.588362 
" style="fill:none;stroke:#000000;stroke-width:0.5;"/>
    <path clip-path="url(#pfbc3837dac)" d="M 277.014936 183.437948 
L 250.048739 129.394739 
" style="fill:none;stroke:#000000;stroke-width:0.5;"/>
    <path clip-path="url(#pfbc3837dac)" d="M 277.014936 183.437948 
L 290.452166 173.77638 
" style="fill:none;stroke:#000000;stroke-width:0.5;"/>
    <path clip-path="url(#pfbc3837dac)" d="M 277.014936 183.437948 
L 302.581351 147.234644 
" style="fill:none;stroke:#000000;stroke-width:0.5;"/>
    <path clip-path="url(#pfbc3837dac)" d="M 277.014936 183.437948 
L 284.858129 132.866967 
" style="fill:none;stroke:#000000;stroke-width:0.5;"/>
    <path clip-path="url(#pfbc3837dac)" d="M 277.014936 183.437948 
L 250.829915 195.672396 
" style="fill:none;stroke:#000000;stroke-width:0.5;"/>
    <path clip-path="url(#pfbc3837dac)" d="M 277.014936 183.437948 
L 240.928644 180.813269 
" style="fill:none;stroke:#000000;stroke-width:0.5;"/>
    <path clip-path="url(#pfbc3837dac)" d="M 277.014936 183.437948 
L 300.437602 127.905159 
" style="fill:none;stroke:#000000;stroke-width:0.5;"/>
    <path clip-path="url(#pfbc3837dac)" d="M 277.014936 183.437948 
L 333.238215 187.303744 
" style="fill:none;stroke:#000000;stroke-width:0.5;"/>
    <path clip-path="url(#pfbc3837dac)" d="M 277.014936 183.437948 
L 284.778086 152.939795 
" style="fill:none;stroke:#000000;stroke-width:0.5;"/>
    <path clip-path="url(#pfbc3837dac)" d="M 333.238215 187.303744 
L 250.048739 129.394739 
" style="fill:none;stroke:#000000;stroke-width:0.5;"/>
    <path clip-path="url(#pfbc3837dac)" d="M 333.238215 187.303744 
L 290.452166 173.77638 
" style="fill:none;stroke:#000000;stroke-width:0.5;"/>
    <path clip-path="url(#pfbc3837dac)" d="M 333.238215 187.303744 
L 384.894759 241.093634 
" style="fill:none;stroke:#000000;stroke-width:0.5;"/>
    <path clip-path="url(#pfbc3837dac)" d="M 333.238215 187.303744 
L 404.649374 216.831755 
" style="fill:none;stroke:#000000;stroke-width:0.5;"/>
    <path clip-path="url(#pfbc3837dac)" d="M 333.238215 187.303744 
L 302.581351 147.234644 
" style="fill:none;stroke:#000000;stroke-width:0.5;"/>
    <path clip-path="url(#pfbc3837dac)" d="M 333.238215 187.303744 
L 377.122747 263.008264 
" style="fill:none;stroke:#000000;stroke-width:0.5;"/>
    <path clip-path="url(#pfbc3837dac)" d="M 333.238215 187.303744 
L 412.718695 197.688714 
" style="fill:none;stroke:#000000;stroke-width:0.5;"/>
    <path clip-path="url(#pfbc3837dac)" d="M 333.238215 187.303744 
L 284.858129 132.866967 
" style="fill:none;stroke:#000000;stroke-width:0.5;"/>
    <path clip-path="url(#pfbc3837dac)" d="M 333.238215 187.303744 
L 420.813223 242.958875 
" style="fill:none;stroke:#000000;stroke-width:0.5;"/>
    <path clip-path="url(#pfbc3837dac)" d="M 333.238215 187.303744 
L 300.437602 127.905159 
" style="fill:none;stroke:#000000;stroke-width:0.5;"/>
    <path clip-path="url(#pfbc3837dac)" d="M 333.238215 187.303744 
L 284.778086 152.939795 
" style="fill:none;stroke:#000000;stroke-width:0.5;"/>
    <path clip-path="url(#pfbc3837dac)" d="M 284.858129 132.866967 
L 250.048739 129.394739 
" style="fill:none;stroke:#000000;stroke-width:0.5;"/>
    <path clip-path="url(#pfbc3837dac)" d="M 284.858129 132.866967 
L 290.452166 173.77638 
" style="fill:none;stroke:#000000;stroke-width:0.5;"/>
    <path clip-path="url(#pfbc3837dac)" d="M 284.858129 132.866967 
L 302.581351 147.234644 
" style="fill:none;stroke:#000000;stroke-width:0.5;"/>
    <path clip-path="url(#pfbc3837dac)" d="M 284.858129 132.866967 
L 300.437602 127.905159 
" style="fill:none;stroke:#000000;stroke-width:0.5;"/>
    <path clip-path="url(#pfbc3837dac)" d="M 284.858129 132.866967 
L 284.778086 152.939795 
" style="fill:none;stroke:#000000;stroke-width:0.5;"/>
    <path clip-path="url(#pfbc3837dac)" d="M 240.928644 180.813269 
L 250.048739 129.394739 
" style="fill:none;stroke:#000000;stroke-width:0.5;"/>
    <path clip-path="url(#pfbc3837dac)" d="M 240.928644 180.813269 
L 290.452166 173.77638 
" style="fill:none;stroke:#000000;stroke-width:0.5;"/>
    <path clip-path="url(#pfbc3837dac)" d="M 240.928644 180.813269 
L 250.829915 195.672396 
" style="fill:none;stroke:#000000;stroke-width:0.5;"/>
    <path clip-path="url(#pfbc3837dac)" d="M 197.420325 98.349549 
L 212.163958 96.321215 
" style="fill:none;stroke:#000000;stroke-width:0.5;"/>
    <path clip-path="url(#pfbc3837dac)" d="M 197.420325 98.349549 
L 250.048739 129.394739 
" style="fill:none;stroke:#000000;stroke-width:0.5;"/>
    <path clip-path="url(#pfbc3837dac)" d="M 197.420325 98.349549 
L 171.036425 98.895226 
" style="fill:none;stroke:#000000;stroke-width:0.5;"/>
    <path clip-path="url(#pfbc3837dac)" d="M 197.420325 98.349549 
L 216.252207 75.588362 
" style="fill:none;stroke:#000000;stroke-width:0.5;"/>
    <path clip-path="url(#pfbc3837dac)" d="M 300.437602 127.905159 
L 250.048739 129.394739 
" style="fill:none;stroke:#000000;stroke-width:0.5;"/>
    <path clip-path="url(#pfbc3837dac)" d="M 300.437602 127.905159 
L 290.452166 173.77638 
" style="fill:none;stroke:#000000;stroke-width:0.5;"/>
    <path clip-path="url(#pfbc3837dac)" d="M 300.437602 127.905159 
L 302.581351 147.234644 
" style="fill:none;stroke:#000000;stroke-width:0.5;"/>
    <path clip-path="url(#pfbc3837dac)" d="M 300.437602 127.905159 
L 284.778086 152.939795 
" style="fill:none;stroke:#000000;stroke-width:0.5;"/>
    <path clip-path="url(#pfbc3837dac)" d="M 171.036425 98.895226 
L 113.716109 69.219755 
" style="fill:none;stroke:#000000;stroke-width:0.5;"/>
    <path clip-path="url(#pfbc3837dac)" d="M 171.036425 98.895226 
L 212.163958 96.321215 
" style="fill:none;stroke:#000000;stroke-width:0.5;"/>
    <path clip-path="url(#pfbc3837dac)" d="M 171.036425 98.895226 
L 250.048739 129.394739 
" style="fill:none;stroke:#000000;stroke-width:0.5;"/>
    <path clip-path="url(#pfbc3837dac)" d="M 171.036425 98.895226 
L 122.845955 57.827894 
" style="fill:none;stroke:#000000;stroke-width:0.5;"/>
    <path clip-path="url(#pfbc3837dac)" d="M 171.036425 98.895226 
L 111.717285 96.648758 
" style="fill:none;stroke:#000000;stroke-width:0.5;"/>
    <path clip-path="url(#pfbc3837dac)" d="M 212.163958 96.321215 
L 250.048739 129.394739 
" style="fill:none;stroke:#000000;stroke-width:0.5;"/>
    <path clip-path="url(#pfbc3837dac)" d="M 212.163958 96.321215 
L 216.252207 75.588362 
" style="fill:none;stroke:#000000;stroke-width:0.5;"/>
    <path clip-path="url(#pfbc3837dac)" d="M 216.252207 75.588362 
L 261.991967 65.806352 
" style="fill:none;stroke:#000000;stroke-width:0.5;"/>
    <path clip-path="url(#pfbc3837dac)" d="M 216.252207 75.588362 
L 250.048739 129.394739 
" style="fill:none;stroke:#000000;stroke-width:0.5;"/>
    <path clip-path="url(#pfbc3837dac)" d="M 250.048739 129.394739 
L 261.991967 65.806352 
" style="fill:none;stroke:#000000;stroke-width:0.5;"/>
    <path clip-path="url(#pfbc3837dac)" d="M 250.048739 129.394739 
L 290.452166 173.77638 
" style="fill:none;stroke:#000000;stroke-width:0.5;"/>
    <path clip-path="url(#pfbc3837dac)" d="M 250.048739 129.394739 
L 302.581351 147.234644 
" style="fill:none;stroke:#000000;stroke-width:0.5;"/>
    <path clip-path="url(#pfbc3837dac)" d="M 250.048739 129.394739 
L 250.829915 195.672396 
" style="fill:none;stroke:#000000;stroke-width:0.5;"/>
    <path clip-path="url(#pfbc3837dac)" d="M 284.778086 152.939795 
L 302.581351 147.234644 
" style="fill:none;stroke:#000000;stroke-width:0.5;"/>
    <path clip-path="url(#pfbc3837dac)" d="M 64.70191 24.991736 
L 113.716109 69.219755 
" style="fill:none;stroke:#000000;stroke-width:0.5;"/>
    <path clip-path="url(#pfbc3837dac)" d="M 64.70191 24.991736 
L 39.986777 73.819028 
" style="fill:none;stroke:#000000;stroke-width:0.5;"/>
    <path clip-path="url(#pfbc3837dac)" d="M 64.70191 24.991736 
L 122.845955 57.827894 
" style="fill:none;stroke:#000000;stroke-width:0.5;"/>
    <path clip-path="url(#pfbc3837dac)" d="M 64.70191 24.991736 
L 52.084098 93.456549 
" style="fill:none;stroke:#000000;stroke-width:0.5;"/>
    <path clip-path="url(#pfbc3837dac)" d="M 64.70191 24.991736 
L 111.717285 96.648758 
" style="fill:none;stroke:#000000;stroke-width:0.5;"/>
    <path clip-path="url(#pfbc3837dac)" d="M 384.894759 241.093634 
L 377.122747 263.008264 
" style="fill:none;stroke:#000000;stroke-width:0.5;"/>
    <path clip-path="url(#pfbc3837dac)" d="M 384.894759 241.093634 
L 420.813223 242.958875 
" style="fill:none;stroke:#000000;stroke-width:0.5;"/>
    <path clip-path="url(#pfbc3837dac)" d="M 113.716109 69.219755 
L 39.986777 73.819028 
" style="fill:none;stroke:#000000;stroke-width:0.5;"/>
    <path clip-path="url(#pfbc3837dac)" d="M 113.716109 69.219755 
L 122.845955 57.827894 
" style="fill:none;stroke:#000000;stroke-width:0.5;"/>
    <path clip-path="url(#pfbc3837dac)" d="M 113.716109 69.219755 
L 52.084098 93.456549 
" style="fill:none;stroke:#000000;stroke-width:0.5;"/>
    <path clip-path="url(#pfbc3837dac)" d="M 113.716109 69.219755 
L 111.717285 96.648758 
" style="fill:none;stroke:#000000;stroke-width:0.5;"/>
    <path clip-path="url(#pfbc3837dac)" d="M 404.649374 216.831755 
L 412.718695 197.688714 
" style="fill:none;stroke:#000000;stroke-width:0.5;"/>
    <path clip-path="url(#pfbc3837dac)" d="M 404.649374 216.831755 
L 420.813223 242.958875 
" style="fill:none;stroke:#000000;stroke-width:0.5;"/>
    <path clip-path="url(#pfbc3837dac)" d="M 412.718695 197.688714 
L 420.813223 242.958875 
" style="fill:none;stroke:#000000;stroke-width:0.5;"/>
    <path clip-path="url(#pfbc3837dac)" d="M 39.986777 73.819028 
L 122.845955 57.827894 
" style="fill:none;stroke:#000000;stroke-width:0.5;"/>
    <path clip-path="url(#pfbc3837dac)" d="M 39.986777 73.819028 
L 52.084098 93.456549 
" style="fill:none;stroke:#000000;stroke-width:0.5;"/>
    <path clip-path="url(#pfbc3837dac)" d="M 39.986777 73.819028 
L 111.717285 96.648758 
" style="fill:none;stroke:#000000;stroke-width:0.5;"/>
    <path clip-path="url(#pfbc3837dac)" d="M 290.452166 173.77638 
L 302.581351 147.234644 
" style="fill:none;stroke:#000000;stroke-width:0.5;"/>
    <path clip-path="url(#pfbc3837dac)" d="M 290.452166 173.77638 
L 250.829915 195.672396 
" style="fill:none;stroke:#000000;stroke-width:0.5;"/>
    <path clip-path="url(#pfbc3837dac)" d="M 52.084098 93.456549 
L 122.845955 57.827894 
" style="fill:none;stroke:#000000;stroke-width:0.5;"/>
    <path clip-path="url(#pfbc3837dac)" d="M 52.084098 93.456549 
L 111.717285 96.648758 
" style="fill:none;stroke:#000000;stroke-width:0.5;"/>
    <path clip-path="url(#pfbc3837dac)" d="M 122.845955 57.827894 
L 111.717285 96.648758 
" style="fill:none;stroke:#000000;stroke-width:0.5;"/>
    <path clip-path="url(#pfbc3837dac)" d="M 420.813223 242.958875 
L 377.122747 263.008264 
" style="fill:none;stroke:#000000;stroke-width:0.5;"/>
   </g>
   <g id="PathCollection_1">
    <path clip-path="url(#pfbc3837dac)" d="M 200.985665 88.567018 
C 203.637696 88.567018 206.181464 87.513354 208.056733 85.638085 
C 209.932002 83.762816 210.985665 81.219049 210.985665 78.567018 
C 210.985665 75.914987 209.932002 73.371219 208.056733 71.49595 
C 206.181464 69.620681 203.637696 68.567018 200.985665 68.567018 
C 198.333634 68.567018 195.789867 69.620681 193.914598 71.49595 
C 192.039329 73.371219 190.985665 75.914987 190.985665 78.567018 
C 190.985665 81.219049 192.039329 83.762816 193.914598 85.638085 
C 195.789867 87.513354 198.333634 88.567018 200.985665 88.567018 
z
" style="fill:#440154;stroke:#ffffff;"/>
    <path clip-path="url(#pfbc3837dac)" d="M 234.992769 141.547106 
C 238.970816 141.547106 242.786467 139.966611 245.599371 137.153707 
C 248.412274 134.340804 249.992769 130.525152 249.992769 126.547106 
C 249.992769 122.569059 248.412274 118.753408 245.599371 115.940504 
C 242.786467 113.1276 238.970816 111.547106 234.992769 111.547106 
C 231.014723 111.547106 227.199071 113.1276 224.386167 115.940504 
C 221.573264 118.753408 219.992769 122.569059 219.992769 126.547106 
C 219.992769 130.525152 221.573264 134.340804 224.386167 137.153707 
C 227.199071 139.966611 231.014723 141.547106 234.992769 141.547106 
z
" style="fill:#440154;stroke:#ffffff;"/>
    <path clip-path="url(#pfbc3837dac)" d="M 41.709509 54.45425 
C 44.36154 54.45425 46.905308 53.400587 48.780577 51.525318 
C 50.655846 49.650049 51.709509 47.106281 51.709509 44.45425 
C 51.709509 41.802219 50.655846 39.258452 48.780577 37.383183 
C 46.905308 35.507914 44.36154 34.45425 41.709509 34.45425 
C 39.057478 34.45425 36.513711 35.507914 34.638442 37.383183 
C 32.763172 39.258452 31.709509 41.802219 31.709509 44.45425 
C 31.709509 47.106281 32.763172 49.650049 34.638442 51.525318 
C 36.513711 53.400587 39.057478 54.45425 41.709509 54.45425 
z
" style="fill:#21918c;stroke:#ffffff;"/>
    <path clip-path="url(#pfbc3837dac)" d="M 402.224844 270.1491 
C 404.521571 270.1491 406.724538 269.236601 408.348569 267.61257 
C 409.972599 265.988539 410.885098 263.785572 410.885098 261.488846 
C 410.885098 259.192119 409.972599 256.989152 408.348569 255.365121 
C 406.724538 253.741091 404.521571 252.828592 402.224844 252.828592 
C 399.928118 252.828592 397.725151 253.741091 396.10112 255.365121 
C 394.477089 256.989152 393.56459 259.192119 393.56459 261.488846 
C 393.56459 263.785572 394.477089 265.988539 396.10112 267.61257 
C 397.725151 269.236601 399.928118 270.1491 402.224844 270.1491 
z
" style="fill:#fde725;stroke:#ffffff;"/>
    <path clip-path="url(#pfbc3837dac)" d="M 117.646832 93.741788 
C 120.611893 93.741788 123.455912 92.563757 125.552527 90.467142 
C 127.649141 88.370528 128.827172 85.526509 128.827172 82.561448 
C 128.827172 79.596387 127.649141 76.752369 125.552527 74.655754 
C 123.455912 72.559139 120.611893 71.381108 117.646832 71.381108 
C 114.681772 71.381108 111.837753 72.559139 109.741138 74.655754 
C 107.644524 76.752369 106.466493 79.596387 106.466493 82.561448 
C 106.466493 85.526509 107.644524 88.370528 109.741138 90.467142 
C 111.837753 92.563757 114.681772 93.741788 117.646832 93.741788 
z
" style="fill:#21918c;stroke:#ffffff;"/>
    <path clip-path="url(#pfbc3837dac)" d="M 198.641204 125.398404 
C 201.293235 125.398404 203.837003 124.344741 205.712272 122.469472 
C 207.587541 120.594203 208.641204 118.050435 208.641204 115.398404 
C 208.641204 112.746373 207.587541 110.202606 205.712272 108.327337 
C 203.837003 106.452068 201.293235 105.398404 198.641204 105.398404 
C 195.989173 105.398404 193.445406 106.452068 191.570137 108.327337 
C 189.694867 110.202606 188.641204 112.746373 188.641204 115.398404 
C 188.641204 118.050435 189.694867 120.594203 191.570137 122.469472 
C 193.445406 124.344741 195.989173 125.398404 198.641204 125.398404 
z
" style="fill:#440154;stroke:#ffffff;"/>
    <path clip-path="url(#pfbc3837dac)" d="M 61.742263 63.409482 
C 64.394294 63.409482 66.938061 62.355819 68.81333 60.48055 
C 70.688599 58.605281 71.742263 56.061513 71.742263 53.409482 
C 71.742263 50.757451 70.688599 48.213684 68.81333 46.338415 
C 66.938061 44.463145 64.394294 43.409482 61.742263 43.409482 
C 59.090232 43.409482 56.546464 44.463145 54.671195 46.338415 
C 52.795926 48.213684 51.742263 50.757451 51.742263 53.409482 
C 51.742263 56.061513 52.795926 58.605281 54.671195 60.48055 
C 56.546464 62.355819 59.090232 63.409482 61.742263 63.409482 
z
" style="fill:#21918c;stroke:#ffffff;"/>
    <path clip-path="url(#pfbc3837dac)" d="M 164.770688 97.684062 
C 168.01875 97.684062 171.134216 96.393593 173.430942 94.096867 
C 175.727668 91.800141 177.018137 88.684675 177.018137 85.436613 
C 177.018137 82.188552 175.727668 79.073085 173.430942 76.776359 
C 171.134216 74.479633 168.01875 73.189164 164.770688 73.189164 
C 161.522627 73.189164 158.40716 74.479633 156.110434 76.776359 
C 153.813708 79.073085 152.52324 82.188552 152.52324 85.436613 
C 152.52324 88.684675 153.813708 91.800141 156.110434 94.096867 
C 158.40716 96.393593 161.522627 97.684062 164.770688 97.684062 
z
" style="fill:#440154;stroke:#ffffff;"/>
    <path clip-path="url(#pfbc3837dac)" d="M 277.014936 194.618288 
C 279.979996 194.618288 282.824015 193.440257 284.92063 191.343642 
C 287.017244 189.247027 288.195275 186.403009 288.195275 183.437948 
C 288.195275 180.472887 287.017244 177.628868 284.92063 175.532254 
C 282.824015 173.435639 279.979996 172.257608 277.014936 172.257608 
C 274.049875 172.257608 271.205856 173.435639 269.109241 175.532254 
C 267.012627 177.628868 265.834596 180.472887 265.834596 183.437948 
C 265.834596 186.403009 267.012627 189.247027 269.109241 191.343642 
C 271.205856 193.440257 274.049875 194.618288 277.014936 194.618288 
z
" style="fill:#440154;stroke:#ffffff;"/>
    <path clip-path="url(#pfbc3837dac)" d="M 333.238215 200.532501 
C 336.746522 200.532501 340.11161 199.138636 342.592358 196.657888 
C 345.073106 194.17714 346.466971 190.812052 346.466971 187.303744 
C 346.466971 183.795437 345.073106 180.430349 342.592358 177.949601 
C 340.11161 175.468853 336.746522 174.074988 333.238215 174.074988 
C 329.729907 174.074988 326.364819 175.468853 323.884071 177.949601 
C 321.403323 180.430349 320.009458 183.795437 320.009458 187.303744 
C 320.009458 190.812052 321.403323 194.17714 323.884071 196.657888 
C 326.364819 199.138636 329.729907 200.532501 333.238215 200.532501 
z
" style="fill:#440154;stroke:#ffffff;"/>
    <path clip-path="url(#pfbc3837dac)" d="M 284.858129 142.866967 
C 287.51016 142.866967 290.053928 141.813304 291.929197 139.938035 
C 293.804466 138.062765 294.858129 135.518998 294.858129 132.866967 
C 294.858129 130.214936 293.804466 127.671168 291.929197 125.795899 
C 290.053928 123.92063 287.51016 122.866967 284.858129 122.866967 
C 282.206098 122.866967 279.66233 123.92063 277.787061 125.795899 
C 275.911792 127.671168 274.858129 130.214936 274.858129 132.866967 
C 274.858129 135.518998 275.911792 138.062765 277.787061 139.938035 
C 279.66233 141.813304 282.206098 142.866967 284.858129 142.866967 
z
" style="fill:#440154;stroke:#ffffff;"/>
    <path clip-path="url(#pfbc3837dac)" d="M 240.928644 188.718963 
C 243.025258 188.718963 245.036283 187.885969 246.518814 186.403438 
C 248.001344 184.920908 248.834338 182.909883 248.834338 180.813269 
C 248.834338 178.716654 248.001344 176.705629 246.518814 175.223099 
C 245.036283 173.740568 243.025258 172.907574 240.928644 172.907574 
C 238.832029 172.907574 236.821004 173.740568 235.338474 175.223099 
C 233.855944 176.705629 233.02295 178.716654 233.02295 180.813269 
C 233.02295 182.909883 233.855944 184.920908 235.338474 186.403438 
C 236.821004 187.885969 238.832029 188.718963 240.928644 188.718963 
z
" style="fill:#440154;stroke:#ffffff;"/>
    <path clip-path="url(#pfbc3837dac)" d="M 197.420325 108.349549 
C 200.072356 108.349549 202.616123 107.295886 204.491392 105.420617 
C 206.366662 103.545348 207.420325 101.00158 207.420325 98.349549 
C 207.420325 95.697518 206.366662 93.153751 204.491392 91.278481 
C 202.616123 89.403212 200.072356 88.349549 197.420325 88.349549 
C 194.768294 88.349549 192.224526 89.403212 190.349257 91.278481 
C 188.473988 93.153751 187.420325 95.697518 187.420325 98.349549 
C 187.420325 101.00158 188.473988 103.545348 190.349257 105.420617 
C 192.224526 107.295886 194.768294 108.349549 197.420325 108.349549 
z
" style="fill:#440154;stroke:#ffffff;"/>
    <path clip-path="url(#pfbc3837dac)" d="M 300.437602 137.905159 
C 303.089633 137.905159 305.633401 136.851496 307.50867 134.976227 
C 309.383939 133.100957 310.437602 130.55719 310.437602 127.905159 
C 310.437602 125.253128 309.383939 122.70936 307.50867 120.834091 
C 305.633401 118.958822 303.089633 117.905159 300.437602 117.905159 
C 297.785571 117.905159 295.241803 118.958822 293.366534 120.834091 
C 291.491265 122.70936 290.437602 125.253128 290.437602 127.905159 
C 290.437602 130.55719 291.491265 133.100957 293.366534 134.976227 
C 295.241803 136.851496 297.785571 137.905159 300.437602 137.905159 
z
" style="fill:#440154;stroke:#ffffff;"/>
    <path clip-path="url(#pfbc3837dac)" d="M 171.036425 110.621265 
C 174.146207 110.621265 177.129039 109.385735 179.327987 107.186787 
C 181.526935 104.98784 182.762465 102.005008 182.762465 98.895226 
C 182.762465 95.785444 181.526935 92.802611 179.327987 90.603664 
C 177.129039 88.404716 174.146207 87.169186 171.036425 87.169186 
C 167.926643 87.169186 164.943811 88.404716 162.744863 90.603664 
C 160.545915 92.802611 159.310386 95.785444 159.310386 98.895226 
C 159.310386 102.005008 160.545915 104.98784 162.744863 107.186787 
C 164.943811 109.385735 167.926643 110.621265 171.036425 110.621265 
z
" style="fill:#440154;stroke:#ffffff;"/>
    <path clip-path="url(#pfbc3837dac)" d="M 212.163958 106.321215 
C 214.815989 106.321215 217.359756 105.267552 219.235025 103.392283 
C 221.110295 101.517014 222.163958 98.973246 222.163958 96.321215 
C 222.163958 93.669184 221.110295 91.125417 219.235025 89.250147 
C 217.359756 87.374878 214.815989 86.321215 212.163958 86.321215 
C 209.511927 86.321215 206.968159 87.374878 205.09289 89.250147 
C 203.217621 91.125417 202.163958 93.669184 202.163958 96.321215 
C 202.163958 98.973246 203.217621 101.517014 205.09289 103.392283 
C 206.968159 105.267552 209.511927 106.321215 212.163958 106.321215 
z
" style="fill:#440154;stroke:#ffffff;"/>
    <path clip-path="url(#pfbc3837dac)" d="M 216.252207 85.588362 
C 218.904238 85.588362 221.448006 84.534699 223.323275 82.65943 
C 225.198544 80.784161 226.252207 78.240393 226.252207 75.588362 
C 226.252207 72.936331 225.198544 70.392564 223.323275 68.517294 
C 221.448006 66.642025 218.904238 65.588362 216.252207 65.588362 
C 213.600176 65.588362 211.056408 66.642025 209.181139 68.517294 
C 207.30587 70.392564 206.252207 72.936331 206.252207 75.588362 
C 206.252207 78.240393 207.30587 80.784161 209.181139 82.65943 
C 211.056408 84.534699 213.600176 85.588362 216.252207 85.588362 
z
" style="fill:#440154;stroke:#ffffff;"/>
    <path clip-path="url(#pfbc3837dac)" d="M 250.048739 143.972118 
C 253.914705 143.972118 257.622852 142.436154 260.356503 139.702503 
C 263.090154 136.968852 264.626119 133.260705 264.626119 129.394739 
C 264.626119 125.528772 263.090154 121.820625 260.356503 119.086974 
C 257.622852 116.353323 253.914705 114.817359 250.048739 114.817359 
C 246.182773 114.817359 242.474626 116.353323 239.740975 119.086974 
C 237.007324 121.820625 235.471359 125.528772 235.471359 129.394739 
C 235.471359 133.260705 237.007324 136.968852 239.740975 139.702503 
C 242.474626 142.436154 246.182773 143.972118 250.048739 143.972118 
z
" style="fill:#440154;stroke:#ffffff;"/>
    <path clip-path="url(#pfbc3837dac)" d="M 284.778086 161.600049 
C 287.074812 161.600049 289.27778 160.68755 290.90181 159.063519 
C 292.525841 157.439489 293.43834 155.236521 293.43834 152.939795 
C 293.43834 150.643069 292.525841 148.440101 290.90181 146.816071 
C 289.27778 145.19204 287.074812 144.279541 284.778086 144.279541 
C 282.48136 144.279541 280.278392 145.19204 278.654362 146.816071 
C 277.030331 148.440101 276.117832 150.643069 276.117832 152.939795 
C 276.117832 155.236521 277.030331 157.439489 278.654362 159.063519 
C 280.278392 160.68755 282.48136 161.600049 284.778086 161.600049 
z
" style="fill:#440154;stroke:#ffffff;"/>
    <path clip-path="url(#pfbc3837dac)" d="M 261.991967 71.930077 
C 263.615998 71.930077 265.173731 71.284843 266.322094 70.136479 
C 267.470458 68.988116 268.115692 67.430383 268.115692 65.806352 
C 268.115692 64.182322 267.470458 62.624588 266.322094 61.476225 
C 265.173731 60.327862 263.615998 59.682628 261.991967 59.682628 
C 260.367937 59.682628 258.810204 60.327862 257.66184 61.476225 
C 256.513477 62.624588 255.868243 64.182322 255.868243 65.806352 
C 255.868243 67.430383 256.513477 68.988116 257.66184 70.136479 
C 258.810204 71.284843 260.367937 71.930077 261.991967 71.930077 
z
" style="fill:#440154;stroke:#ffffff;"/>
    <path clip-path="url(#pfbc3837dac)" d="M 64.70191 34.991736 
C 67.353941 34.991736 69.897709 33.938072 71.772978 32.062803 
C 73.648247 30.187534 74.70191 27.643767 74.70191 24.991736 
C 74.70191 22.339705 73.648247 19.795937 71.772978 17.920668 
C 69.897709 16.045399 67.353941 14.991736 64.70191 14.991736 
C 62.049879 14.991736 59.506111 16.045399 57.630842 17.920668 
C 55.755573 19.795937 54.70191 22.339705 54.70191 24.991736 
C 54.70191 27.643767 55.755573 30.187534 57.630842 32.062803 
C 59.506111 33.938072 62.049879 34.991736 64.70191 34.991736 
z
" style="fill:#21918c;stroke:#ffffff;"/>
    <path clip-path="url(#pfbc3837dac)" d="M 384.894759 248.164702 
C 386.770028 248.164702 388.568743 247.419649 389.894759 246.093634 
C 391.220774 244.767618 391.965826 242.968903 391.965826 241.093634 
C 391.965826 239.218365 391.220774 237.419649 389.894759 236.093634 
C 388.568743 234.767618 386.770028 234.022566 384.894759 234.022566 
C 383.019489 234.022566 381.220774 234.767618 379.894759 236.093634 
C 378.568743 237.419649 377.823691 239.218365 377.823691 241.093634 
C 377.823691 242.968903 378.568743 244.767618 379.894759 246.093634 
C 381.220774 247.419649 383.019489 248.164702 384.894759 248.164702 
z
" style="fill:#fde725;stroke:#ffffff;"/>
    <path clip-path="url(#pfbc3837dac)" d="M 113.716109 80.400095 
C 116.68117 80.400095 119.525188 79.222063 121.621803 77.125449 
C 123.718417 75.028834 124.896449 72.184815 124.896449 69.219755 
C 124.896449 66.254694 123.718417 63.410675 121.621803 61.314061 
C 119.525188 59.217446 116.68117 58.039415 113.716109 58.039415 
C 110.751048 58.039415 107.907029 59.217446 105.810415 61.314061 
C 103.7138 63.410675 102.535769 66.254694 102.535769 69.219755 
C 102.535769 72.184815 103.7138 75.028834 105.810415 77.125449 
C 107.907029 79.222063 110.751048 80.400095 113.716109 80.400095 
z
" style="fill:#21918c;stroke:#ffffff;"/>
    <path clip-path="url(#pfbc3837dac)" d="M 404.649374 223.902823 
C 406.524643 223.902823 408.323358 223.157771 409.649374 221.831755 
C 410.975389 220.50574 411.720442 218.707025 411.720442 216.831755 
C 411.720442 214.956486 410.975389 213.157771 409.649374 211.831755 
C 408.323358 210.50574 406.524643 209.760688 404.649374 209.760688 
C 402.774105 209.760688 400.975389 210.50574 399.649374 211.831755 
C 398.323358 213.157771 397.578306 214.956486 397.578306 216.831755 
C 397.578306 218.707025 398.323358 220.50574 399.649374 221.831755 
C 400.975389 223.157771 402.774105 223.902823 404.649374 223.902823 
z
" style="fill:#fde725;stroke:#ffffff;"/>
    <path clip-path="url(#pfbc3837dac)" d="M 412.718695 204.759782 
C 414.593964 204.759782 416.392679 204.01473 417.718695 202.688714 
C 419.04471 201.362699 419.789763 199.563983 419.789763 197.688714 
C 419.789763 195.813445 419.04471 194.01473 417.718695 192.688714 
C 416.392679 191.362699 414.593964 190.617646 412.718695 190.617646 
C 410.843426 190.617646 409.04471 191.362699 407.718695 192.688714 
C 406.392679 194.01473 405.647627 195.813445 405.647627 197.688714 
C 405.647627 199.563983 406.392679 201.362699 407.718695 202.688714 
C 409.04471 204.01473 410.843426 204.759782 412.718695 204.759782 
z
" style="fill:#fde725;stroke:#ffffff;"/>
    <path clip-path="url(#pfbc3837dac)" d="M 39.986777 83.819028 
C 42.638808 83.819028 45.182576 82.765365 47.057845 80.890096 
C 48.933114 79.014827 49.986777 76.471059 49.986777 73.819028 
C 49.986777 71.166997 48.933114 68.62323 47.057845 66.747961 
C 45.182576 64.872691 42.638808 63.819028 39.986777 63.819028 
C 37.334746 63.819028 34.790978 64.872691 32.915709 66.747961 
C 31.04044 68.62323 29.986777 71.166997 29.986777 73.819028 
C 29.986777 76.471059 31.04044 79.014827 32.915709 80.890096 
C 34.790978 82.765365 37.334746 83.819028 39.986777 83.819028 
z
" style="fill:#21918c;stroke:#ffffff;"/>
    <path clip-path="url(#pfbc3837dac)" d="M 290.452166 184.382982 
C 293.26507 184.382982 295.963143 183.265404 297.952166 181.27638 
C 299.941189 179.287357 301.058768 176.589284 301.058768 173.77638 
C 301.058768 170.963477 299.941189 168.265404 297.952166 166.27638 
C 295.963143 164.287357 293.26507 163.169779 290.452166 163.169779 
C 287.639262 163.169779 284.941189 164.287357 282.952166 166.27638 
C 280.963143 168.265404 279.845564 170.963477 279.845564 173.77638 
C 279.845564 176.589284 280.963143 179.287357 282.952166 181.27638 
C 284.941189 183.265404 287.639262 184.382982 290.452166 184.382982 
z
" style="fill:#440154;stroke:#ffffff;"/>
    <path clip-path="url(#pfbc3837dac)" d="M 52.084098 103.456549 
C 54.736129 103.456549 57.279897 102.402886 59.155166 100.527616 
C 61.030435 98.652347 62.084098 96.10858 62.084098 93.456549 
C 62.084098 90.804518 61.030435 88.26075 59.155166 86.385481 
C 57.279897 84.510212 54.736129 83.456549 52.084098 83.456549 
C 49.432067 83.456549 46.8883 84.510212 45.01303 86.385481 
C 43.137761 88.26075 42.084098 90.804518 42.084098 93.456549 
C 42.084098 96.10858 43.137761 98.652347 45.01303 100.527616 
C 46.8883 102.402886 49.432067 103.456549 52.084098 103.456549 
z
" style="fill:#21918c;stroke:#ffffff;"/>
    <path clip-path="url(#pfbc3837dac)" d="M 122.845955 69.008234 
C 125.811016 69.008234 128.655034 67.830203 130.751649 65.733588 
C 132.848263 63.636974 134.026295 60.792955 134.026295 57.827894 
C 134.026295 54.862833 132.848263 52.018815 130.751649 49.9222 
C 128.655034 47.825585 125.811016 46.647554 122.845955 46.647554 
C 119.880894 46.647554 117.036875 47.825585 114.940261 49.9222 
C 112.843646 52.018815 111.665615 54.862833 111.665615 57.827894 
C 111.665615 60.792955 112.843646 63.636974 114.940261 65.733588 
C 117.036875 67.830203 119.880894 69.008234 122.845955 69.008234 
z
" style="fill:#21918c;stroke:#ffffff;"/>
    <path clip-path="url(#pfbc3837dac)" d="M 111.717285 107.829098 
C 114.682346 107.829098 117.526365 106.651067 119.62298 104.554452 
C 121.719594 102.457838 122.897625 99.613819 122.897625 96.648758 
C 122.897625 93.683697 121.719594 90.839679 119.62298 88.743064 
C 117.526365 86.646449 114.682346 85.468418 111.717285 85.468418 
C 108.752225 85.468418 105.908206 86.646449 103.811591 88.743064 
C 101.714977 90.839679 100.536946 93.683697 100.536946 96.648758 
C 100.536946 99.613819 101.714977 102.457838 103.811591 104.554452 
C 105.908206 106.651067 108.752225 107.829098 111.717285 107.829098 
z
" style="fill:#21918c;stroke:#ffffff;"/>
    <path clip-path="url(#pfbc3837dac)" d="M 420.813223 251.619129 
C 423.109949 251.619129 425.312917 250.70663 426.936947 249.082599 
C 428.560978 247.458569 429.473477 245.255601 429.473477 242.958875 
C 429.473477 240.662149 428.560978 238.459181 426.936947 236.835151 
C 425.312917 235.21112 423.109949 234.298621 420.813223 234.298621 
C 418.516497 234.298621 416.313529 235.21112 414.689499 236.835151 
C 413.065468 238.459181 412.152969 240.662149 412.152969 242.958875 
C 412.152969 245.255601 413.065468 247.458569 414.689499 249.082599 
C 416.313529 250.70663 418.516497 251.619129 420.813223 251.619129 
z
" style="fill:#fde725;stroke:#ffffff;"/>
    <path clip-path="url(#pfbc3837dac)" d="M 250.829915 203.57809 
C 252.926529 203.57809 254.937554 202.745096 256.420085 201.262566 
C 257.902615 199.780036 258.735609 197.769011 258.735609 195.672396 
C 258.735609 193.575781 257.902615 191.564756 256.420085 190.082226 
C 254.937554 188.599696 252.926529 187.766702 250.829915 187.766702 
C 248.7333 187.766702 246.722275 188.599696 245.239745 190.082226 
C 243.757214 191.564756 242.92422 193.575781 242.92422 195.672396 
C 242.92422 197.769011 243.757214 199.780036 245.239745 201.262566 
C 246.722275 202.745096 248.7333 203.57809 250.829915 203.57809 
z
" style="fill:#440154;stroke:#ffffff;"/>
    <path clip-path="url(#pfbc3837dac)" d="M 302.581351 157.234644 
C 305.233382 157.234644 307.77715 156.180981 309.652419 154.305712 
C 311.527688 152.430443 312.581351 149.886675 312.581351 147.234644 
C 312.581351 144.582613 311.527688 142.038845 309.652419 140.163576 
C 307.77715 138.288307 305.233382 137.234644 302.581351 137.234644 
C 299.92932 137.234644 297.385553 138.288307 295.510284 140.163576 
C 293.635014 142.038845 292.581351 144.582613 292.581351 147.234644 
C 292.581351 149.886675 293.635014 152.430443 295.510284 154.305712 
C 297.385553 156.180981 299.92932 157.234644 302.581351 157.234644 
z
" style="fill:#440154;stroke:#ffffff;"/>
    <path clip-path="url(#pfbc3837dac)" d="M 377.122747 270.079332 
C 378.998016 270.079332 380.796731 269.33428 382.122747 268.008264 
C 383.448762 266.682249 384.193815 264.883534 384.193815 263.008264 
C 384.193815 261.132995 383.448762 259.33428 382.122747 258.008264 
C 380.796731 256.682249 378.998016 255.937197 377.122747 255.937197 
C 375.247478 255.937197 373.448762 256.682249 372.122747 258.008264 
C 370.796731 259.33428 370.051679 261.132995 370.051679 263.008264 
C 370.051679 264.883534 370.796731 266.682249 372.122747 268.008264 
C 373.448762 269.33428 375.247478 270.079332 377.122747 270.079332 
z
" style="fill:#fde725;stroke:#ffffff;"/>
   </g>
  </g>
  <g id="axes_2">
   <g id="patch_2">
    <path clip-path="url(#p0af55dc751)" d="M 489.6 288 
L 489.6 192 
L 489.6 96 
L 489.6 0 
L 504 0 
L 504 96 
L 504 192 
L 504 288 
z
" style="fill:#ffffff;stroke:#ffffff;stroke-linejoin:miter;stroke-width:0.01;"/>
   </g>
   <g id="QuadMesh_1">
    <path clip-path="url(#p0af55dc751)" d="M 489.6 288 
L 504 288 
L 504 192 
L 489.6 192 
L 489.6 288 
" style="fill:#440154;"/>
    <path clip-path="url(#p0af55dc751)" d="M 489.6 192 
L 504 192 
L 504 96 
L 489.6 96 
L 489.6 192 
" style="fill:#21918c;"/>
    <path clip-path="url(#p0af55dc751)" d="M 489.6 96 
L 504 96 
L 504 0 
L 489.6 0 
L 489.6 96 
" style="fill:#fde725;"/>
   </g>
   <g id="matplotlib.axis_1"/>
   <g id="matplotlib.axis_2">
    <g id="ytick_1">
     <g id="line2d_1">
      <defs>
       <path d="M 0 0 
L 3.5 0 
" id="m4ea802a28f" style="stroke:#000000;stroke-width:0.8;"/>
      </defs>
      <g>
       <use style="stroke:#000000;stroke-width:0.8;" x="504" xlink:href="#m4ea802a28f" y="288"/>
      </g>
     </g>
     <g id="text_1">
      <!-- 0 -->
      <g transform="translate(511 291.799219)scale(0.1 -0.1)">
       <defs>
        <path d="M 31.78125 66.40625 
Q 24.171875 66.40625 20.328125 58.90625 
Q 16.5 51.421875 16.5 36.375 
Q 16.5 21.390625 20.328125 13.890625 
Q 24.171875 6.390625 31.78125 6.390625 
Q 39.453125 6.390625 43.28125 13.890625 
Q 47.125 21.390625 47.125 36.375 
Q 47.125 51.421875 43.28125 58.90625 
Q 39.453125 66.40625 31.78125 66.40625 
z
M 31.78125 74.21875 
Q 44.046875 74.21875 50.515625 64.515625 
Q 56.984375 54.828125 56.984375 36.375 
Q 56.984375 17.96875 50.515625 8.265625 
Q 44.046875 -1.421875 31.78125 -1.421875 
Q 19.53125 -1.421875 13.0625 8.265625 
Q 6.59375 17.96875 6.59375 36.375 
Q 6.59375 54.828125 13.0625 64.515625 
Q 19.53125 74.21875 31.78125 74.21875 
z
" id="DejaVuSans-48"/>
       </defs>
       <use xlink:href="#DejaVuSans-48"/>
      </g>
     </g>
    </g>
    <g id="ytick_2">
     <g id="line2d_2">
      <g>
       <use style="stroke:#000000;stroke-width:0.8;" x="504" xlink:href="#m4ea802a28f" y="144"/>
      </g>
     </g>
     <g id="text_2">
      <!-- 1 -->
      <g transform="translate(511 147.799219)scale(0.1 -0.1)">
       <defs>
        <path d="M 12.40625 8.296875 
L 28.515625 8.296875 
L 28.515625 63.921875 
L 10.984375 60.40625 
L 10.984375 69.390625 
L 28.421875 72.90625 
L 38.28125 72.90625 
L 38.28125 8.296875 
L 54.390625 8.296875 
L 54.390625 0 
L 12.40625 0 
z
" id="DejaVuSans-49"/>
       </defs>
       <use xlink:href="#DejaVuSans-49"/>
      </g>
     </g>
    </g>
    <g id="ytick_3">
     <g id="line2d_3">
      <g>
       <use style="stroke:#000000;stroke-width:0.8;" x="504" xlink:href="#m4ea802a28f" y="0"/>
      </g>
     </g>
     <g id="text_3">
      <!-- 2 -->
      <g transform="translate(511 3.799219)scale(0.1 -0.1)">
       <defs>
        <path d="M 19.1875 8.296875 
L 53.609375 8.296875 
L 53.609375 0 
L 7.328125 0 
L 7.328125 8.296875 
Q 12.9375 14.109375 22.625 23.890625 
Q 32.328125 33.6875 34.8125 36.53125 
Q 39.546875 41.84375 41.421875 45.53125 
Q 43.3125 49.21875 43.3125 52.78125 
Q 43.3125 58.59375 39.234375 62.25 
Q 35.15625 65.921875 28.609375 65.921875 
Q 23.96875 65.921875 18.8125 64.3125 
Q 13.671875 62.703125 7.8125 59.421875 
L 7.8125 69.390625 
Q 13.765625 71.78125 18.9375 73 
Q 24.125 74.21875 28.421875 74.21875 
Q 39.75 74.21875 46.484375 68.546875 
Q 53.21875 62.890625 53.21875 53.421875 
Q 53.21875 48.921875 51.53125 44.890625 
Q 49.859375 40.875 45.40625 35.40625 
Q 44.1875 33.984375 37.640625 27.21875 
Q 31.109375 20.453125 19.1875 8.296875 
z
" id="DejaVuSans-50"/>
       </defs>
       <use xlink:href="#DejaVuSans-50"/>
      </g>
     </g>
    </g>
    <g id="text_4">
     <!-- Sub-Graph Number -->
     <g transform="translate(528.960938 192.514062)rotate(-90)scale(0.1 -0.1)">
      <defs>
       <path d="M 53.515625 70.515625 
L 53.515625 60.890625 
Q 47.90625 63.578125 42.921875 64.890625 
Q 37.9375 66.21875 33.296875 66.21875 
Q 25.25 66.21875 20.875 63.09375 
Q 16.5 59.96875 16.5 54.203125 
Q 16.5 49.359375 19.40625 46.890625 
Q 22.3125 44.4375 30.421875 42.921875 
L 36.375 41.703125 
Q 47.40625 39.59375 52.65625 34.296875 
Q 57.90625 29 57.90625 20.125 
Q 57.90625 9.515625 50.796875 4.046875 
Q 43.703125 -1.421875 29.984375 -1.421875 
Q 24.8125 -1.421875 18.96875 -0.25 
Q 13.140625 0.921875 6.890625 3.21875 
L 6.890625 13.375 
Q 12.890625 10.015625 18.65625 8.296875 
Q 24.421875 6.59375 29.984375 6.59375 
Q 38.421875 6.59375 43.015625 9.90625 
Q 47.609375 13.234375 47.609375 19.390625 
Q 47.609375 24.75 44.3125 27.78125 
Q 41.015625 30.8125 33.5 32.328125 
L 27.484375 33.5 
Q 16.453125 35.6875 11.515625 40.375 
Q 6.59375 45.0625 6.59375 53.421875 
Q 6.59375 63.09375 13.40625 68.65625 
Q 20.21875 74.21875 32.171875 74.21875 
Q 37.3125 74.21875 42.625 73.28125 
Q 47.953125 72.359375 53.515625 70.515625 
z
" id="DejaVuSans-83"/>
       <path d="M 8.5 21.578125 
L 8.5 54.6875 
L 17.484375 54.6875 
L 17.484375 21.921875 
Q 17.484375 14.15625 20.5 10.265625 
Q 23.53125 6.390625 29.59375 6.390625 
Q 36.859375 6.390625 41.078125 11.03125 
Q 45.3125 15.671875 45.3125 23.6875 
L 45.3125 54.6875 
L 54.296875 54.6875 
L 54.296875 0 
L 45.3125 0 
L 45.3125 8.40625 
Q 42.046875 3.421875 37.71875 1 
Q 33.40625 -1.421875 27.6875 -1.421875 
Q 18.265625 -1.421875 13.375 4.4375 
Q 8.5 10.296875 8.5 21.578125 
z
M 31.109375 56 
z
" id="DejaVuSans-117"/>
       <path d="M 48.6875 27.296875 
Q 48.6875 37.203125 44.609375 42.84375 
Q 40.53125 48.484375 33.40625 48.484375 
Q 26.265625 48.484375 22.1875 42.84375 
Q 18.109375 37.203125 18.109375 27.296875 
Q 18.109375 17.390625 22.1875 11.75 
Q 26.265625 6.109375 33.40625 6.109375 
Q 40.53125 6.109375 44.609375 11.75 
Q 48.6875 17.390625 48.6875 27.296875 
z
M 18.109375 46.390625 
Q 20.953125 51.265625 25.265625 53.625 
Q 29.59375 56 35.59375 56 
Q 45.5625 56 51.78125 48.09375 
Q 58.015625 40.1875 58.015625 27.296875 
Q 58.015625 14.40625 51.78125 6.484375 
Q 45.5625 -1.421875 35.59375 -1.421875 
Q 29.59375 -1.421875 25.265625 0.953125 
Q 20.953125 3.328125 18.109375 8.203125 
L 18.109375 0 
L 9.078125 0 
L 9.078125 75.984375 
L 18.109375 75.984375 
z
" id="DejaVuSans-98"/>
       <path d="M 4.890625 31.390625 
L 31.203125 31.390625 
L 31.203125 23.390625 
L 4.890625 23.390625 
z
" id="DejaVuSans-45"/>
       <path d="M 59.515625 10.40625 
L 59.515625 29.984375 
L 43.40625 29.984375 
L 43.40625 38.09375 
L 69.28125 38.09375 
L 69.28125 6.78125 
Q 63.578125 2.734375 56.6875 0.65625 
Q 49.8125 -1.421875 42 -1.421875 
Q 24.90625 -1.421875 15.25 8.5625 
Q 5.609375 18.5625 5.609375 36.375 
Q 5.609375 54.25 15.25 64.234375 
Q 24.90625 74.21875 42 74.21875 
Q 49.125 74.21875 55.546875 72.453125 
Q 61.96875 70.703125 67.390625 67.28125 
L 67.390625 56.78125 
Q 61.921875 61.421875 55.765625 63.765625 
Q 49.609375 66.109375 42.828125 66.109375 
Q 29.4375 66.109375 22.71875 58.640625 
Q 16.015625 51.171875 16.015625 36.375 
Q 16.015625 21.625 22.71875 14.15625 
Q 29.4375 6.6875 42.828125 6.6875 
Q 48.046875 6.6875 52.140625 7.59375 
Q 56.25 8.5 59.515625 10.40625 
z
" id="DejaVuSans-71"/>
       <path d="M 41.109375 46.296875 
Q 39.59375 47.171875 37.8125 47.578125 
Q 36.03125 48 33.890625 48 
Q 26.265625 48 22.1875 43.046875 
Q 18.109375 38.09375 18.109375 28.8125 
L 18.109375 0 
L 9.078125 0 
L 9.078125 54.6875 
L 18.109375 54.6875 
L 18.109375 46.1875 
Q 20.953125 51.171875 25.484375 53.578125 
Q 30.03125 56 36.53125 56 
Q 37.453125 56 38.578125 55.875 
Q 39.703125 55.765625 41.0625 55.515625 
z
" id="DejaVuSans-114"/>
       <path d="M 34.28125 27.484375 
Q 23.390625 27.484375 19.1875 25 
Q 14.984375 22.515625 14.984375 16.5 
Q 14.984375 11.71875 18.140625 8.90625 
Q 21.296875 6.109375 26.703125 6.109375 
Q 34.1875 6.109375 38.703125 11.40625 
Q 43.21875 16.703125 43.21875 25.484375 
L 43.21875 27.484375 
z
M 52.203125 31.203125 
L 52.203125 0 
L 43.21875 0 
L 43.21875 8.296875 
Q 40.140625 3.328125 35.546875 0.953125 
Q 30.953125 -1.421875 24.3125 -1.421875 
Q 15.921875 -1.421875 10.953125 3.296875 
Q 6 8.015625 6 15.921875 
Q 6 25.140625 12.171875 29.828125 
Q 18.359375 34.515625 30.609375 34.515625 
L 43.21875 34.515625 
L 43.21875 35.40625 
Q 43.21875 41.609375 39.140625 45 
Q 35.0625 48.390625 27.6875 48.390625 
Q 23 48.390625 18.546875 47.265625 
Q 14.109375 46.140625 10.015625 43.890625 
L 10.015625 52.203125 
Q 14.9375 54.109375 19.578125 55.046875 
Q 24.21875 56 28.609375 56 
Q 40.484375 56 46.34375 49.84375 
Q 52.203125 43.703125 52.203125 31.203125 
z
" id="DejaVuSans-97"/>
       <path d="M 18.109375 8.203125 
L 18.109375 -20.796875 
L 9.078125 -20.796875 
L 9.078125 54.6875 
L 18.109375 54.6875 
L 18.109375 46.390625 
Q 20.953125 51.265625 25.265625 53.625 
Q 29.59375 56 35.59375 56 
Q 45.5625 56 51.78125 48.09375 
Q 58.015625 40.1875 58.015625 27.296875 
Q 58.015625 14.40625 51.78125 6.484375 
Q 45.5625 -1.421875 35.59375 -1.421875 
Q 29.59375 -1.421875 25.265625 0.953125 
Q 20.953125 3.328125 18.109375 8.203125 
z
M 48.6875 27.296875 
Q 48.6875 37.203125 44.609375 42.84375 
Q 40.53125 48.484375 33.40625 48.484375 
Q 26.265625 48.484375 22.1875 42.84375 
Q 18.109375 37.203125 18.109375 27.296875 
Q 18.109375 17.390625 22.1875 11.75 
Q 26.265625 6.109375 33.40625 6.109375 
Q 40.53125 6.109375 44.609375 11.75 
Q 48.6875 17.390625 48.6875 27.296875 
z
" id="DejaVuSans-112"/>
       <path d="M 54.890625 33.015625 
L 54.890625 0 
L 45.90625 0 
L 45.90625 32.71875 
Q 45.90625 40.484375 42.875 44.328125 
Q 39.84375 48.1875 33.796875 48.1875 
Q 26.515625 48.1875 22.3125 43.546875 
Q 18.109375 38.921875 18.109375 30.90625 
L 18.109375 0 
L 9.078125 0 
L 9.078125 75.984375 
L 18.109375 75.984375 
L 18.109375 46.1875 
Q 21.34375 51.125 25.703125 53.5625 
Q 30.078125 56 35.796875 56 
Q 45.21875 56 50.046875 50.171875 
Q 54.890625 44.34375 54.890625 33.015625 
z
" id="DejaVuSans-104"/>
       <path id="DejaVuSans-32"/>
       <path d="M 9.8125 72.90625 
L 23.09375 72.90625 
L 55.421875 11.921875 
L 55.421875 72.90625 
L 64.984375 72.90625 
L 64.984375 0 
L 51.703125 0 
L 19.390625 60.984375 
L 19.390625 0 
L 9.8125 0 
z
" id="DejaVuSans-78"/>
       <path d="M 52 44.1875 
Q 55.375 50.25 60.0625 53.125 
Q 64.75 56 71.09375 56 
Q 79.640625 56 84.28125 50.015625 
Q 88.921875 44.046875 88.921875 33.015625 
L 88.921875 0 
L 79.890625 0 
L 79.890625 32.71875 
Q 79.890625 40.578125 77.09375 44.375 
Q 74.3125 48.1875 68.609375 48.1875 
Q 61.625 48.1875 57.5625 43.546875 
Q 53.515625 38.921875 53.515625 30.90625 
L 53.515625 0 
L 44.484375 0 
L 44.484375 32.71875 
Q 44.484375 40.625 41.703125 44.40625 
Q 38.921875 48.1875 33.109375 48.1875 
Q 26.21875 48.1875 22.15625 43.53125 
Q 18.109375 38.875 18.109375 30.90625 
L 18.109375 0 
L 9.078125 0 
L 9.078125 54.6875 
L 18.109375 54.6875 
L 18.109375 46.1875 
Q 21.1875 51.21875 25.484375 53.609375 
Q 29.78125 56 35.6875 56 
Q 41.65625 56 45.828125 52.96875 
Q 50 49.953125 52 44.1875 
z
" id="DejaVuSans-109"/>
       <path d="M 56.203125 29.59375 
L 56.203125 25.203125 
L 14.890625 25.203125 
Q 15.484375 15.921875 20.484375 11.0625 
Q 25.484375 6.203125 34.421875 6.203125 
Q 39.59375 6.203125 44.453125 7.46875 
Q 49.3125 8.734375 54.109375 11.28125 
L 54.109375 2.78125 
Q 49.265625 0.734375 44.1875 -0.34375 
Q 39.109375 -1.421875 33.890625 -1.421875 
Q 20.796875 -1.421875 13.15625 6.1875 
Q 5.515625 13.8125 5.515625 26.8125 
Q 5.515625 40.234375 12.765625 48.109375 
Q 20.015625 56 32.328125 56 
Q 43.359375 56 49.78125 48.890625 
Q 56.203125 41.796875 56.203125 29.59375 
z
M 47.21875 32.234375 
Q 47.125 39.59375 43.09375 43.984375 
Q 39.0625 48.390625 32.421875 48.390625 
Q 24.90625 48.390625 20.390625 44.140625 
Q 15.875 39.890625 15.1875 32.171875 
z
" id="DejaVuSans-101"/>
      </defs>
      <use xlink:href="#DejaVuSans-83"/>
      <use x="63.476562" xlink:href="#DejaVuSans-117"/>
      <use x="126.855469" xlink:href="#DejaVuSans-98"/>
      <use x="190.332031" xlink:href="#DejaVuSans-45"/>
      <use x="230.041016" xlink:href="#DejaVuSans-71"/>
      <use x="307.53125" xlink:href="#DejaVuSans-114"/>
      <use x="348.644531" xlink:href="#DejaVuSans-97"/>
      <use x="409.923828" xlink:href="#DejaVuSans-112"/>
      <use x="473.400391" xlink:href="#DejaVuSans-104"/>
      <use x="536.779297" xlink:href="#DejaVuSans-32"/>
      <use x="568.566406" xlink:href="#DejaVuSans-78"/>
      <use x="643.371094" xlink:href="#DejaVuSans-117"/>
      <use x="706.75" xlink:href="#DejaVuSans-109"/>
      <use x="804.162109" xlink:href="#DejaVuSans-98"/>
      <use x="867.638672" xlink:href="#DejaVuSans-101"/>
      <use x="929.162109" xlink:href="#DejaVuSans-114"/>
     </g>
    </g>
   </g>
   <g id="patch_3">
    <path d="M 489.6 288 
L 489.6 192 
L 489.6 96 
L 489.6 0 
L 504 0 
L 504 96 
L 504 192 
L 504 288 
z
" style="fill:none;stroke:#000000;stroke-linejoin:miter;stroke-width:0.8;"/>
   </g>
  </g>
 </g>
 <defs>
  <clipPath id="pfbc3837dac">
   <rect height="288" width="460.8" x="0" y="0"/>
  </clipPath>
  <clipPath id="p0af55dc751">
   <rect height="288" width="14.4" x="489.6" y="0"/>
  </clipPath>
 </defs>
</svg>
